<svg width="382" height="499" viewBox="0 0 382 499" fill="none" xmlns="http://www.w3.org/2000/svg">
<path d="M124.334 310.077L122.87 307.458L124.334 310.077ZM113.287 253.584L114.459 256.345L113.287 253.584ZM372.364 402.99C373.996 403.279 375.084 404.835 374.795 406.467L370.087 433.053C369.799 434.685 368.242 435.773 366.61 435.484C364.979 435.195 363.89 433.639 364.179 432.007L368.364 408.375L344.732 404.19C343.1 403.901 342.012 402.345 342.301 400.713C342.589 399.082 344.146 397.993 345.778 398.282L372.364 402.99ZM88.4953 50.4124C57.7118 100.073 43.882 177.832 49.4809 236.618C52.2866 266.077 59.916 290.128 72.1282 303.559C78.1604 310.193 85.2509 314.179 93.4672 315.082C101.731 315.991 111.489 313.82 122.87 307.458L125.798 312.696C113.681 319.469 102.666 322.13 92.8114 321.046C82.9093 319.957 74.5361 315.126 67.6888 307.595C54.1421 292.696 46.3497 267.025 43.5079 237.187C37.8119 177.381 51.784 98.248 83.3956 47.2512L88.4953 50.4124ZM122.87 307.458C138.001 299.001 147.417 290.259 152.476 282.383C157.528 274.519 158.129 267.735 156.189 262.761C154.251 257.793 149.492 253.892 142.256 252.35C135.008 250.807 125.411 251.696 114.459 256.345L112.114 250.822C123.923 245.81 134.788 244.625 143.506 246.482C152.235 248.341 158.944 253.314 161.779 260.58C164.611 267.84 163.289 276.651 157.524 285.626C151.766 294.59 141.471 303.935 125.798 312.696L122.87 307.458ZM114.459 256.345C84.8167 268.928 71.6428 293.934 71.9778 322.26C72.3147 350.748 86.3672 382.627 111.483 408.065C136.557 433.461 172.534 452.303 216.5 454.851C260.458 457.399 312.646 443.669 370.122 403.485L373.56 408.403C315.197 449.206 261.701 463.481 216.153 460.841C170.614 458.202 133.264 438.666 107.214 412.281C81.2058 385.939 66.3366 352.636 65.9782 322.331C65.6178 291.864 79.975 264.465 112.114 250.822L114.459 256.345Z" fill="#52ED80"/>
</svg>
