<svg width="303" height="302" viewBox="0 0 303 302" fill="none" xmlns="http://www.w3.org/2000/svg">
<path d="M147.511 296.041C147.502 296.313 147.414 296.536 147.249 296.711C147.078 296.886 146.832 296.968 146.509 296.956C146.187 296.944 145.947 296.845 145.79 296.658C145.626 296.471 145.55 296.241 145.56 295.97C145.57 295.704 145.663 295.483 145.839 295.309C146.01 295.139 146.256 295.061 146.578 295.072C146.901 295.084 147.141 295.181 147.299 295.362C147.45 295.549 147.521 295.776 147.511 296.041Z" fill="white"/>
<path d="M119.899 290.366L120.069 288.727L119.371 290.066L114.881 297.827L113.548 297.489L113.354 288.541L113.392 287.009L112.728 288.557L108.791 296.284L107.202 295.881L113.144 284.634L114.585 284.999L114.841 294.357L114.799 295.319L115.22 294.453L119.992 286.369L121.433 286.734L121.293 299.452L119.713 299.051L119.899 290.366Z" fill="white"/>
<path d="M92.8256 283.331L97.7756 285.381L99.4518 281.333L93.7016 278.952L94.2116 277.72L101.468 280.725L96.7383 292.147L89.5603 289.174L90.0736 287.935L95.7453 290.284L97.2656 286.612L92.3156 284.562L92.8256 283.331Z" fill="white"/>
<path d="M75.971 267.814L68.9492 277.989L66.0771 276.006C65.1919 275.396 64.5442 274.66 64.1341 273.799C63.724 272.938 63.5841 272.02 63.7144 271.044C63.84 270.064 64.2236 269.105 64.8652 268.165L65.3137 267.515C65.976 266.556 66.7427 265.843 67.6137 265.378C68.4801 264.91 69.3915 264.721 70.3478 264.81C71.2995 264.896 72.2352 265.249 73.1547 265.87L75.971 267.814ZM68.3695 275.958L73.8721 267.985L72.4605 267.011C71.4262 266.297 70.4007 266.064 69.384 266.311C68.3626 266.556 67.442 267.272 66.6222 268.46L66.2123 269.054C65.4149 270.209 65.0685 271.294 65.1732 272.308C65.2699 273.324 65.8135 274.181 66.8041 274.878L68.3695 275.958Z" fill="white"/>
<path d="M52.0403 256.26L56.022 259.845L58.9534 256.589L54.3281 252.425L55.2201 251.434L61.0569 256.689L52.7852 265.877L47.0114 260.678L47.909 259.681L52.4712 263.789L55.13 260.836L51.1484 257.251L52.0403 256.26Z" fill="white"/>
<path d="M42.1547 245.596C42.7598 246.919 43.0492 248.013 43.023 248.878C42.9888 249.743 42.6452 250.455 41.9921 251.015C41.253 251.649 40.3904 251.878 39.4043 251.702C38.4103 251.525 37.5079 250.964 36.6973 250.019C36.1446 249.374 35.7773 248.694 35.5953 247.977C35.4098 247.257 35.4182 246.571 35.6207 245.92C35.8194 245.265 36.1788 244.714 36.6987 244.269L37.7655 245.512C37.1983 245.999 36.9083 246.561 36.8955 247.198C36.8785 247.839 37.1519 248.488 37.7156 249.146C38.2389 249.756 38.7833 250.117 39.3487 250.228C39.9063 250.339 40.4235 250.19 40.9004 249.781C41.2829 249.453 41.4691 249.014 41.4592 248.463C41.4412 247.912 41.2083 247.153 40.7605 246.188C40.309 245.218 40.0286 244.399 39.9191 243.733C39.8017 243.065 39.8289 242.475 40.0007 241.963C40.1688 241.446 40.4913 240.983 40.9683 240.574C41.7288 239.921 42.5932 239.695 43.5615 239.893C44.5255 240.096 45.4331 240.693 46.2843 241.686C46.837 242.33 47.2304 243.037 47.4645 243.806C47.6943 244.578 47.7252 245.301 47.5571 245.974C47.3853 246.644 47.0266 247.212 46.4809 247.68L45.4142 246.436C45.9814 245.95 46.2517 245.356 46.2251 244.656C46.1906 243.955 45.873 243.254 45.2723 242.554C44.7123 241.9 44.1498 241.514 43.5849 241.394C43.02 241.275 42.5077 241.412 42.0479 241.806C41.5882 242.201 41.3718 242.666 41.399 243.202C41.4218 243.742 41.6737 244.54 42.1547 245.596Z" fill="white"/>
<path d="M36.1569 228.721L37.0712 230.071L26.8359 237.004L25.9217 235.654L36.1569 228.721Z" fill="white"/>
<path d="M24.6189 211.97C25.3442 212.067 26.0129 212.381 26.6249 212.912C27.2294 213.441 27.7602 214.148 28.2173 215.033C28.6797 215.929 28.8814 216.831 28.8225 217.741C28.7585 218.653 28.438 219.5 27.8609 220.282C27.2812 221.06 26.4835 221.717 25.4678 222.254L24.5097 222.749C22.8551 223.604 21.3739 223.881 20.0662 223.582C18.7558 223.278 17.7396 222.427 17.0174 221.028C16.4252 219.882 16.2427 218.807 16.4701 217.804C16.6924 216.804 17.3014 215.947 18.2971 215.236L19.0453 216.684C17.7321 217.706 17.4521 218.947 18.2055 220.405C18.7068 221.376 19.4294 221.936 20.3731 222.086C21.3092 222.233 22.4248 221.975 23.72 221.313L24.6177 220.849C25.8498 220.213 26.6851 219.424 27.1234 218.484C27.5567 217.547 27.5252 216.598 27.0291 215.638C26.7485 215.094 26.4427 214.65 26.1116 214.305C25.7805 213.96 25.4027 213.729 24.9784 213.61L22.5115 214.884L23.8247 217.426L22.6478 218.034L20.5905 214.051L24.6189 211.97Z" fill="white"/>
<path d="M18.5978 192.24L19.1324 193.789L12.1578 202.781L21.1631 199.673L21.6977 201.222L10.0117 205.255L9.47706 203.706L16.4863 194.685L7.4409 197.807L6.91178 196.274L18.5978 192.24Z" fill="white"/>
<path d="M9.80807 164.363L10.3796 169.511L13.7148 170.311L13.9003 171.982L1.09232 168.654L0.934904 167.236L12.7 161.171L12.8846 162.834L9.80807 164.363ZM8.99194 169.169L8.52813 164.992L3.01363 167.723L8.99194 169.169Z" fill="white"/>
<path d="M12.6299 142.755L12.5829 144.393L2.88173 150.341L12.4044 150.614L12.3574 152.252L0 151.898L0.0469853 150.26L9.79105 144.296L0.225919 144.022L0.272417 142.401L12.6299 142.755Z" fill="white"/>
<path d="M13.6652 132.257L1.47656 130.19L2.05984 126.75C2.2396 125.689 2.63294 124.792 3.23987 124.056C3.84679 123.321 4.62014 122.806 5.55992 122.512C6.50064 122.212 7.53236 122.154 8.65506 122.339L9.43359 122.471C10.5832 122.666 11.5527 123.06 12.3421 123.653C13.1324 124.241 13.6891 124.987 14.0123 125.891C14.3364 126.79 14.4114 127.787 14.2371 128.883L13.6652 132.257ZM3.07171 128.807L12.6234 130.427L12.91 128.736C13.1201 127.497 12.8982 126.469 12.2444 125.652C11.5916 124.829 10.5536 124.297 9.13046 124.056L8.4189 123.935C7.03485 123.701 5.90518 123.845 5.02991 124.368C4.15 124.885 3.60323 125.74 3.3896 126.932L3.07171 128.807Z" fill="white"/>
<path d="M20.9401 103.142L9.48047 98.5039L10.7896 95.2691C11.1931 94.2721 11.7702 93.4798 12.521 92.8921C13.2718 92.3044 14.1377 91.9679 15.1187 91.8825C16.1019 91.7918 17.1219 91.9573 18.1787 92.3789L18.9107 92.6751C19.9916 93.1126 20.8537 93.7057 21.4971 94.4546C22.1427 95.1983 22.5261 96.0465 22.6473 96.9994C22.7707 97.9469 22.6295 98.9371 22.2238 99.9697L20.9401 103.142ZM11.3356 97.496L20.316 101.13L20.9594 99.5405C21.4308 98.3756 21.4351 97.324 20.9722 96.3856C20.5114 95.4419 19.612 94.6993 18.274 94.1578L17.605 93.8871C16.3037 93.3604 15.1694 93.2586 14.2021 93.5816C13.2317 93.8972 12.514 94.6144 12.0491 95.733L11.3356 97.496Z" fill="white"/>
<path d="M27.0047 77.2679L24.3729 81.9346L28.1891 84.0868L31.2463 78.6657L32.4075 79.3205L28.5494 86.1616L17.7812 80.0889L21.5976 73.3218L22.7661 73.9808L19.7506 79.3279L23.2118 81.2798L25.8436 76.6131L27.0047 77.2679Z" fill="white"/>
<path d="M38.2088 66.9387L32.1606 58.001L33.2289 56.5734L40.3798 67.6513L39.5149 68.807L26.875 65.0642L27.9382 63.6434L38.2088 66.9387Z" fill="white"/>
<path d="M49.9504 48.0414L46.2155 51.8826L49.3566 54.9368L53.6953 50.4747L54.651 51.4039L49.1759 57.0349L40.3125 48.4167L45.7284 42.8467L46.6903 43.7819L42.4108 48.1832L45.2597 50.9533L48.9946 47.1121L49.9504 48.0414Z" fill="white"/>
<path d="M62.0242 43.0952L66.5957 39.4312L67.4294 40.4714L61.5792 45.1602L53.8477 35.5137L55.1264 34.4888L62.0242 43.0952Z" fill="white"/>
<path d="M80.4799 25.0218C81.1043 26.0598 81.4753 27.0719 81.5929 28.058C81.7076 29.0393 81.5673 29.9263 81.1722 30.7189C80.777 31.5115 80.1526 32.1645 79.2989 32.6781C78.4646 33.1799 77.6023 33.4212 76.7121 33.4018C75.819 33.3776 74.9653 33.0951 74.1512 32.5543C73.339 32.0057 72.6276 31.2348 72.0168 30.2414L71.5573 29.4774C70.9445 28.4588 70.5803 27.4526 70.4647 26.4586C70.349 25.4647 70.4897 24.5675 70.8868 23.7672C71.2859 22.9591 71.9025 22.3041 72.7368 21.8022C73.5857 21.2916 74.4567 21.0484 75.3498 21.0726C76.2449 21.0891 77.1019 21.3828 77.9209 21.9536C78.737 22.5196 79.4558 23.3192 80.0772 24.3524L80.4799 25.0218ZM78.6788 25.1738C77.9231 23.9175 77.0917 23.1064 76.1846 22.7404C75.2746 22.3697 74.366 22.4571 73.459 23.0027C72.5762 23.5337 72.0829 24.2896 71.9792 25.2702C71.8774 26.243 72.1781 27.3304 72.8813 28.5324L73.3496 29.3109C74.082 30.5284 74.9129 31.3332 75.8423 31.7253C76.7737 32.1096 77.6881 32.0319 78.5855 31.4921C79.4877 30.9494 79.9892 30.2018 80.09 29.2494C80.188 28.2921 79.8751 27.1955 79.1515 25.9596L78.6788 25.1738Z" fill="white"/>
<path d="M92.4611 20.0969L94.356 24.5503L92.8559 25.1886L88.0156 13.813L92.2111 12.0278C93.456 11.4981 94.5652 11.4014 95.5387 11.7377C96.5175 12.0717 97.2296 12.7622 97.6751 13.8091C98.1449 14.9133 98.1609 15.9123 97.723 16.8061C97.2881 17.6924 96.4274 18.4093 95.1409 18.9567L92.4611 20.0969ZM91.9392 18.8703L94.6346 17.7234C95.4367 17.3821 95.9716 16.9331 96.2391 16.3763C96.5044 15.8144 96.4853 15.1766 96.1816 14.463C95.8935 13.7859 95.4495 13.3351 94.8495 13.1105C94.2495 12.886 93.5738 12.9244 92.8223 13.2257L90.041 14.4091L91.9392 18.8703Z" fill="white"/>
<path d="M127.648 3.18584L123.742 3.91941L125.777 14.751L124.183 15.0504L122.149 4.2188L118.252 4.9508L118.004 3.63232L127.4 1.86736L127.648 3.18584Z" fill="white"/>
<path d="M149.158 12.3493L147.521 12.4253L147.256 6.71718L141.031 7.00636L141.296 12.7145L139.667 12.7901L139.094 0.440918L140.722 0.365273L140.969 5.67475L147.194 5.38557L146.948 0.0760883L148.585 4.93079e-05L149.158 12.3493Z" fill="white"/>
<path d="M167.172 7.53882L161.835 7.06966L161.451 11.4341L167.651 11.979L167.534 13.307L159.71 12.6192L160.793 0.304199L168.532 0.984508L168.415 2.32089L162.299 1.78334L161.951 5.74174L167.289 6.21089L167.172 7.53882Z" fill="white"/>
<path d="M190.892 13.1364L189.465 17.7612L187.908 17.2808L191.551 5.46729L195.908 6.81097C197.201 7.20966 198.11 7.85156 198.637 8.73667C199.169 9.62345 199.268 10.6105 198.932 11.6977C198.579 12.8444 197.946 13.6179 197.035 14.0181C196.131 14.4145 195.011 14.4067 193.675 13.9947L190.892 13.1364ZM191.284 11.8626L194.084 12.7258C194.917 12.9827 195.615 12.9848 196.179 12.7322C196.744 12.4741 197.141 11.9745 197.369 11.2335C197.586 10.5303 197.538 9.89936 197.225 9.34066C196.911 8.78196 196.37 8.37523 195.602 8.12046L192.713 7.22967L191.284 11.8626Z" fill="white"/>
<path d="M211.689 20.7563L209.053 19.5373L206.954 24.0763L205.466 23.3883L210.656 12.168L214.371 13.8861C215.635 14.4706 216.472 15.2075 216.884 16.0966C217.302 16.988 217.256 17.9835 216.747 19.0829C216.424 19.7816 215.952 20.3025 215.332 20.6455C214.717 20.9909 214.014 21.1364 213.222 21.082L213.655 27.0635L213.612 27.156L212.024 26.4217L211.689 20.7563ZM209.613 18.3274L211.886 19.3789C212.621 19.7187 213.292 19.7984 213.899 19.6178C214.512 19.4396 214.965 19.032 215.26 18.3949C215.581 17.7014 215.619 17.0734 215.374 16.511C215.134 15.951 214.625 15.4878 213.846 15.1215L211.58 14.0735L209.613 18.3274Z" fill="white"/>
<path d="M233.197 32.063C232.54 33.0812 231.796 33.8606 230.963 34.401C230.132 34.9368 229.275 35.2021 228.389 35.197C227.503 35.1919 226.642 34.9195 225.804 34.3798C224.986 33.8523 224.389 33.1849 224.014 32.3774C223.642 31.5651 223.519 30.6744 223.645 29.7052C223.779 28.7344 224.157 27.7558 224.78 26.7696L225.263 26.0202C225.906 25.021 226.649 24.2503 227.49 23.7082C228.331 23.166 229.198 22.8966 230.092 22.9C230.993 22.9017 231.853 23.1663 232.671 23.6937C233.504 24.2304 234.106 24.9048 234.478 25.7171C234.858 26.5277 234.973 27.4263 234.822 28.4132C234.674 29.3952 234.273 30.393 233.62 31.4064L233.197 32.063ZM232.266 30.5136C233.06 29.2813 233.421 28.1774 233.35 27.2019C233.281 26.2216 232.802 25.4448 231.912 24.8713C231.046 24.3132 230.15 24.2039 229.225 24.5433C228.307 24.8809 227.463 25.6304 226.695 26.7917L226.202 27.5553C225.433 28.7496 225.077 29.8502 225.135 30.8574C225.201 31.8628 225.674 32.6492 226.554 33.2165C227.439 33.7868 228.331 33.9072 229.23 33.5777C230.133 33.2434 230.979 32.4789 231.769 31.2844L232.266 30.5136Z" fill="white"/>
<path d="M238.503 43.2396L246.578 33.8784L249.221 36.1577C250.035 36.8602 250.6 37.6614 250.915 38.5612C251.23 39.461 251.271 40.3892 251.036 41.3456C250.806 42.3058 250.322 43.2185 249.583 44.0837L249.067 44.6816C248.305 45.5646 247.466 46.1904 246.551 46.559C245.639 46.9312 244.712 47.0217 243.771 46.8302C242.834 46.6425 241.942 46.1906 241.094 45.4745L238.503 43.2396ZM246.936 35.9591L240.609 43.295L241.907 44.4152C242.859 45.236 243.853 45.578 244.891 45.4413C245.932 45.3082 246.925 44.6952 247.867 43.6022L248.339 43.0557C249.256 41.9927 249.717 40.9513 249.722 39.9315C249.735 38.9112 249.286 38.0011 248.377 37.2013L246.936 35.9591Z" fill="white"/>
<path d="M267.173 54.1995L260.88 59.7734C260.004 60.5424 259.046 60.8994 258.007 60.8446C256.971 60.7939 256.007 60.3326 255.113 59.4605L254.813 59.1476C253.916 58.1349 253.474 57.0857 253.488 55.9998C253.502 54.914 253.983 53.9426 254.934 53.0859L261.238 47.5007L262.308 48.7083L256.041 54.2597C255.372 54.8527 255.014 55.4987 254.968 56.1976C254.926 56.8928 255.207 57.5815 255.811 58.2637C256.423 58.9543 257.075 59.3185 257.766 59.3564C258.461 59.3984 259.143 59.1229 259.813 58.5299L266.086 52.9729L267.173 54.1995Z" fill="white"/>
<path d="M272.297 75.6025C271.126 76.204 270.017 76.3649 268.971 76.0853C267.932 75.8072 267.038 75.1088 266.287 73.99C265.474 72.7772 265.256 71.5124 265.633 70.1958C266.014 68.8838 266.933 67.739 268.391 66.7615L269.378 66.0993C270.332 65.4592 271.285 65.0655 272.236 64.9184C273.19 64.776 274.069 64.888 274.874 65.2547C275.684 65.6182 276.364 66.2112 276.916 67.0339C277.648 68.1245 277.929 69.2038 277.759 70.2719C277.594 71.3368 277.01 72.2843 276.006 73.1145L275.093 71.7536C275.832 71.0874 276.252 70.4339 276.354 69.7931C276.459 69.157 276.275 68.4864 275.802 67.7812C275.222 66.9163 274.447 66.4514 273.476 66.3867C272.509 66.3266 271.435 66.6924 270.255 67.4838L269.261 68.1508C268.147 68.8981 267.417 69.7252 267.071 70.632C266.725 71.5389 266.833 72.4107 267.394 73.2474C267.899 73.9995 268.454 74.4619 269.061 74.6344C269.675 74.8085 270.449 74.6776 271.384 74.2416L272.297 75.6025Z" fill="white"/>
<path d="M287.442 88.8467L285.69 85.2804L275.799 90.1411L275.083 88.6856L284.974 83.8249L283.226 80.2662L284.43 79.6746L288.646 88.2551L287.442 88.8467Z" fill="white"/>
<path d="M291.784 116.11L298.58 117.768L299.021 119.566L290.477 117.269L285.999 118.366L285.611 116.782L290.09 115.686L296.605 109.702L297.05 111.517L291.784 116.11Z" fill="white"/>
<path d="M295.422 140.993C294.217 141.115 293.143 141.018 292.201 140.704C291.265 140.389 290.522 139.884 289.974 139.189C289.426 138.493 289.101 137.65 289.001 136.659C288.903 135.69 289.053 134.807 289.45 134.01C289.853 133.213 290.472 132.561 291.309 132.056C292.151 131.555 293.152 131.24 294.311 131.112L295.198 131.022C296.381 130.902 297.446 131.002 298.395 131.321C299.343 131.641 300.094 132.151 300.649 132.851C301.21 133.557 301.539 134.394 301.637 135.362C301.737 136.348 301.585 137.24 301.182 138.037C300.786 138.84 300.154 139.489 299.289 139.987C298.429 140.483 297.399 140.792 296.199 140.914L295.422 140.993ZM296.053 139.299C297.512 139.151 298.6 138.745 299.318 138.081C300.041 137.416 300.35 136.557 300.243 135.504C300.139 134.479 299.666 133.71 298.823 133.198C297.987 132.691 296.875 132.499 295.488 132.622L294.584 132.714C293.171 132.857 292.088 133.265 291.337 133.939C290.592 134.617 290.273 135.477 290.378 136.519C290.484 137.567 290.946 138.339 291.765 138.837C292.589 139.334 293.714 139.518 295.141 139.391L296.053 139.299Z" fill="white"/>
<path d="M302.012 161.282L293.613 160.959C292.448 160.909 291.509 160.505 290.796 159.747C290.082 158.994 289.704 157.994 289.662 156.746L289.661 156.313C289.713 154.961 290.119 153.897 290.88 153.122C291.64 152.347 292.66 151.978 293.939 152.016L302.355 152.339L302.294 153.951L293.928 153.63C293.034 153.596 292.329 153.815 291.812 154.288C291.301 154.761 291.028 155.453 290.993 156.364C290.958 157.286 291.177 157.999 291.65 158.505C292.124 159.016 292.807 159.288 293.701 159.323L302.075 159.644L302.012 161.282Z" fill="white"/>
<path d="M286.537 181.922L298.5 185.041L297.62 188.417C297.348 189.458 296.879 190.318 296.21 190.998C295.541 191.678 294.726 192.123 293.764 192.335C292.801 192.552 291.768 192.519 290.666 192.238L289.902 192.039C288.774 191.745 287.842 191.268 287.107 190.608C286.371 189.954 285.881 189.163 285.638 188.234C285.393 187.31 285.405 186.31 285.674 185.233L286.537 181.922ZM296.791 186.28L287.416 183.836L286.983 185.496C286.666 186.712 286.798 187.755 287.378 188.626C287.957 189.502 288.945 190.122 290.342 190.486L291.04 190.668C292.398 191.022 293.536 190.977 294.454 190.532C295.375 190.093 295.994 189.289 296.311 188.12L296.791 186.28Z" fill="white"/>
<path d="M284.126 205.835L285.227 203.148L280.6 201.251L281.222 199.734L292.66 204.424L291.108 208.211C290.579 209.499 289.88 210.369 289.01 210.82C288.138 211.276 287.142 211.274 286.021 210.814C285.309 210.522 284.767 210.074 284.397 209.47C284.025 208.87 283.849 208.174 283.868 207.381L277.911 208.077L277.817 208.038L278.481 206.42L284.126 205.835ZM286.461 203.653L285.511 205.971C285.203 206.72 285.154 207.394 285.361 207.993C285.566 208.597 285.993 209.032 286.642 209.298C287.349 209.588 287.979 209.598 288.53 209.329C289.078 209.064 289.519 208.535 289.85 207.741L290.797 205.431L286.461 203.653Z" fill="white"/>
<path d="M275.029 225.588L277.682 220.933L273.876 218.764L270.794 224.171L269.636 223.511L273.525 216.688L284.266 222.809L280.419 229.559L279.253 228.895L282.293 223.561L278.841 221.593L276.188 226.248L275.029 225.588Z" fill="white"/>
<path d="M262.979 238.688L266.101 234.555L264.228 231.682L265.241 230.341L272.26 241.559L271.4 242.697L258.685 239.019L259.693 237.685L262.979 238.688ZM266.875 235.757L264.341 239.11L270.224 240.915L266.875 235.757Z" fill="white"/>
<path d="M260.002 256.081L250.06 251.695L254.223 261.732L252.712 263.211L244.068 254.372L245.234 253.232L248.6 256.674L252.124 260.496L248.026 250.501L248.918 249.629L258.795 253.936L255.065 250.352L251.699 246.91L252.864 245.77L261.508 254.608L260.002 256.081Z" fill="white"/>
<path d="M226.233 272.51L225.208 271.22L225.646 272.665L227.868 281.352L226.679 282.043L220.28 275.785L219.235 274.664L219.844 276.235L222.436 284.51L221.02 285.334L217.396 273.14L218.681 272.393L225.411 278.901L226.054 279.617L225.749 278.704L223.503 269.589L224.788 268.842L233.586 278.027L232.177 278.846L226.233 272.51Z" fill="white"/>
<path d="M204.665 279.168L206.168 278.537L210.957 289.934L209.454 290.566L204.665 279.168Z" fill="white"/>
<path d="M189.177 296.071L192.992 294.957L189.9 284.378L191.457 283.923L194.548 294.502L198.354 293.39L198.73 294.677L189.554 297.359L189.177 296.071Z" fill="white"/>
<path d="M166.867 289.07L168.488 288.833L169.314 294.488L175.481 293.587L174.655 287.933L176.268 287.697L178.055 299.93L176.442 300.165L175.673 294.906L169.507 295.807L170.275 301.066L168.653 301.303L166.867 289.07Z" fill="white"/>
</svg>
