<svg width="306" height="305" viewBox="0 0 306 305" fill="none" xmlns="http://www.w3.org/2000/svg">
<path d="M149.607 299.061L149.607 299.061L149.613 299.054C149.872 298.78 149.997 298.436 150.011 298.06C150.025 297.687 149.923 297.338 149.687 297.047L149.681 297.041L149.676 297.034C149.4 296.716 149.008 296.588 148.597 296.573C148.186 296.558 147.786 296.657 147.487 296.954C147.214 297.225 147.074 297.569 147.06 297.951C147.046 298.335 147.157 298.691 147.41 298.983C147.685 299.307 148.076 299.441 148.491 299.456C148.907 299.471 149.309 299.366 149.607 299.061Z" fill="white" stroke="white"/>
<path d="M121.562 288.115L117.313 295.312L117.085 286.985L117.074 286.607L116.708 286.514L115.267 286.149L114.886 286.052L114.702 286.4L108.76 297.648L108.463 298.21L109.079 298.366L110.668 298.768L111.055 298.866L111.236 298.511L114.872 291.376L115.048 299.5L115.056 299.88L115.425 299.974L116.759 300.312L117.125 300.405L117.314 300.077L121.385 293.041L121.213 301.041L121.204 301.438L121.59 301.536L123.17 301.937L123.786 302.093L123.793 301.457L123.933 288.739L123.937 288.346L123.555 288.249L122.115 287.884L121.752 287.792L121.562 288.115Z" fill="white" stroke="white"/>
<path d="M95.0169 284.869L94.5549 284.678L94.3636 285.14L93.8536 286.371L93.6623 286.833L94.1243 287.024L98.6124 288.883L97.4747 291.63L92.2649 289.473L91.8029 289.282L91.6116 289.744L91.0984 290.983L90.9071 291.445L91.369 291.636L98.547 294.609L99.0089 294.8L99.2002 294.338L103.93 282.916L104.121 282.454L103.659 282.263L96.4029 279.258L95.941 279.067L95.7497 279.529L95.2397 280.76L95.0484 281.222L95.5103 281.414L100.799 283.603L99.505 286.727L95.0169 284.869Z" fill="white" stroke="white"/>
<path d="M78.3825 270.098L78.6665 269.686L78.2549 269.402L75.4387 267.459L75.4387 267.459L75.4345 267.456C74.4565 266.796 73.4417 266.407 72.3935 266.312C71.3368 266.214 70.3275 266.425 69.377 266.938C68.4245 267.447 67.6013 268.218 66.9022 269.231L66.4537 269.881L66.4523 269.883C65.7733 270.878 65.3559 271.911 65.2186 272.979C65.0762 274.047 65.2297 275.063 65.6828 276.014C66.1351 276.964 66.8453 277.764 67.7931 278.418L70.6652 280.4L71.0767 280.684L71.3607 280.273L78.3825 270.098ZM71.5003 268.798L71.5022 268.797C72.3527 268.59 73.2339 268.772 74.1765 269.422L75.1766 270.112L70.2419 277.263L69.0901 276.468C68.1955 275.838 67.7511 275.103 67.6709 274.261L67.6709 274.261L67.6705 274.257C67.582 273.399 67.8686 272.432 68.6238 271.338L69.0337 270.744C69.8099 269.619 70.6375 269.004 71.5003 268.798Z" fill="white" stroke="white"/>
<path d="M54.3748 257.889L54.0033 257.554L53.6687 257.926L52.7768 258.916L52.4422 259.288L52.8138 259.623L56.4239 262.873L54.4342 265.083L50.2436 261.31L49.872 260.975L49.5375 261.347L48.6398 262.344L48.3053 262.715L48.6769 263.05L54.4506 268.248L54.8222 268.583L55.1567 268.211L63.4285 259.024L63.763 258.652L63.3915 258.318L57.5546 253.063L57.183 252.728L56.8485 253.1L55.9566 254.09L55.622 254.462L55.9936 254.796L60.2473 258.626L57.9849 261.139L54.3748 257.889Z" fill="white" stroke="white"/>
<path d="M45.5226 250.898L45.5227 250.898L45.5228 250.893C45.5524 249.916 45.2275 248.74 44.6096 247.389C44.1318 246.339 43.917 245.617 43.8985 245.181L43.8983 245.177C43.8801 244.816 44.0139 244.494 44.3734 244.186C44.7218 243.887 45.0772 243.798 45.4813 243.884C45.8974 243.972 46.3707 244.27 46.8928 244.879C47.443 245.521 47.6973 246.119 47.7256 246.678C47.7451 247.213 47.548 247.663 47.0887 248.057L46.7091 248.382L47.0346 248.762L48.1014 250.006L48.4268 250.385L48.8064 250.06C49.4266 249.528 49.8431 248.871 50.0414 248.099L50.0414 248.099L50.0422 248.095C50.2352 247.322 50.1949 246.507 49.9437 245.663L49.9428 245.66C49.6874 244.821 49.2589 244.054 48.6638 243.36C47.7643 242.311 46.7666 241.635 45.6643 241.404L45.662 241.404C44.54 241.173 43.5188 241.443 42.6428 242.194C42.1078 242.653 41.7268 243.19 41.5259 243.806C41.3227 244.414 41.2986 245.089 41.4262 245.817C41.5463 246.546 41.8468 247.41 42.3071 248.398C42.7467 249.346 42.9438 250.029 42.9593 250.476C42.966 250.891 42.832 251.181 42.575 251.402C42.2005 251.723 41.8361 251.815 41.4464 251.738L41.4456 251.738C41.0264 251.655 40.5737 251.378 40.0952 250.82C39.5835 250.223 39.3826 249.69 39.3954 249.211L39.3954 249.211L39.3954 249.208C39.4048 248.738 39.6114 248.303 40.0909 247.892L40.4705 247.567L40.145 247.187L39.0783 245.943L38.7528 245.563L38.3732 245.889C37.7815 246.396 37.3693 247.028 37.1427 247.773C36.9107 248.52 36.9048 249.3 37.1109 250.101C37.3145 250.903 37.7225 251.65 38.3177 252.344C39.1854 253.356 40.1844 253.993 41.3167 254.194C42.4455 254.395 43.4609 254.129 44.3175 253.395C45.0769 252.743 45.483 251.901 45.5226 250.898Z" fill="white" stroke="white"/>
<path d="M38.5709 230.441L38.2905 230.027L37.8765 230.307L27.6412 237.24L27.2273 237.521L27.5077 237.935L28.422 239.285L28.7024 239.699L29.1164 239.418L39.3516 232.485L39.7656 232.204L39.4852 231.79L38.5709 230.441Z" fill="white" stroke="white"/>
<path d="M26.685 213.475L26.5292 213.454L26.3894 213.526L22.361 215.607L21.9168 215.836L22.1462 216.281L24.2036 220.264L24.433 220.708L24.8773 220.479L26.0541 219.871L26.4984 219.641L26.2689 219.197L25.1852 217.099L27.0211 216.151C27.2832 216.253 27.526 216.417 27.7508 216.652C28.0409 216.954 28.3205 217.355 28.5848 217.867C29.0139 218.698 29.0346 219.484 28.6699 220.274C28.2918 221.084 27.5548 221.802 26.3882 222.405L25.4914 222.868C24.2436 223.506 23.2401 223.716 22.4511 223.592C21.6887 223.471 21.09 223.028 20.6497 222.176C20.311 221.52 20.2309 220.967 20.3382 220.491C20.4457 220.015 20.7586 219.541 21.3524 219.079L21.68 218.824L21.4895 218.455L20.7414 217.006L20.4763 216.493L20.0064 216.829C18.9312 217.598 18.2365 218.552 17.9822 219.694C17.7231 220.839 17.9412 222.034 18.5732 223.258C19.35 224.762 20.4751 225.726 21.953 226.069L21.953 226.069L21.9546 226.07C23.4153 226.404 25.02 226.081 26.7391 225.193L27.6972 224.699L27.6972 224.699L27.7016 224.696C28.7709 224.131 29.6302 223.428 30.2617 222.581L30.2617 222.581L30.2633 222.579C30.893 221.726 31.2502 220.789 31.3213 219.776L31.3214 219.773C31.3869 218.763 31.1611 217.771 30.6616 216.804C30.1823 215.876 29.6156 215.115 28.9542 214.536L28.9527 214.535C28.2751 213.947 27.5175 213.586 26.685 213.475Z" fill="white" stroke="white"/>
<path d="M21.0704 194.077L20.9073 193.605L20.4346 193.768L8.74864 197.801L8.276 197.964L8.43914 198.437L8.96826 199.97L9.1314 200.443L9.60404 200.28L17.0595 197.706L11.0822 205.399L10.916 205.613L11.0044 205.869L11.5391 207.418L11.7022 207.891L12.1749 207.728L23.8609 203.694L24.3335 203.531L24.1704 203.058L23.6357 201.509L23.4726 201.037L22.9999 201.2L15.5823 203.76L21.5275 196.096L21.6934 195.882L21.6051 195.626L21.0704 194.077Z" fill="white" stroke="white"/>
<path d="M16.2117 172.256L16.173 171.907L15.8314 171.825L12.8378 171.106L12.3436 166.655L15.1071 165.282L15.4201 165.126L15.3815 164.779L15.197 163.116L15.1168 162.394L14.4709 162.727L2.70581 168.792L2.39999 168.949L2.43796 169.291L2.59537 170.709L2.63336 171.051L2.96658 171.138L15.7746 174.466L16.4774 174.648L16.3972 173.927L16.2117 172.256ZM10.4163 170.516L6.46838 169.561L10.11 167.757L10.4163 170.516Z" fill="white" stroke="white"/>
<path d="M15.1296 144.77L15.144 144.27L14.6442 144.255L2.28675 143.901L1.78696 143.887L1.77262 144.386L1.72612 146.007L1.71179 146.507L2.21158 146.522L10.0954 146.748L1.78597 151.833L1.55496 151.975L1.54719 152.246L1.50021 153.884L1.48587 154.383L1.98566 154.398L14.3431 154.752L14.8429 154.767L14.8572 154.267L14.9042 152.629L14.9186 152.129L14.4188 152.115L6.57492 151.89L14.8442 146.819L15.0749 146.678L15.0827 146.408L15.1296 144.77Z" fill="white" stroke="white"/>
<path d="M15.5816 134.75L16.0746 134.833L16.1581 134.34L16.7301 130.967L16.7301 130.967L16.7309 130.962C16.9162 129.796 16.8398 128.712 16.4829 127.722C16.1257 126.723 15.5081 125.897 14.6413 125.252C13.7778 124.604 12.7308 124.184 11.5172 123.978L10.7386 123.846L10.7362 123.846C9.54794 123.65 8.43561 123.708 7.40929 124.035C6.3808 124.357 5.5247 124.926 4.85425 125.738C4.18478 126.549 3.75935 127.531 3.56687 128.666L2.9836 132.107L2.90002 132.6L3.39299 132.683L15.5816 134.75ZM13.8528 127.963L13.854 127.964C14.4009 128.648 14.6085 129.523 14.4171 130.652L14.214 131.85L5.64825 130.398L5.88217 129.018C6.07562 127.941 6.55346 127.228 7.28313 126.799L7.28314 126.799L7.2865 126.797C8.02683 126.355 9.02453 126.206 10.3353 126.428L11.0469 126.549C12.3942 126.777 13.3013 127.268 13.8528 127.963Z" fill="white" stroke="white"/>
<path d="M22.7525 105.605L23.216 105.793L23.4036 105.329L24.6873 102.157L24.6873 102.157L24.6891 102.153C25.1206 101.054 25.2789 99.9792 25.1432 98.9355C25.0091 97.8828 24.5834 96.9436 23.8755 96.1277C23.1715 95.3088 22.2392 94.6734 21.0982 94.2116L20.3663 93.9154L20.3639 93.9145C19.2455 93.4683 18.1467 93.2858 17.0741 93.3845C16.0004 93.4781 15.0421 93.8492 14.2128 94.4984C13.3846 95.1467 12.7581 96.014 12.3261 97.0815L11.017 100.316L10.8294 100.78L11.2929 100.967L22.7525 105.605ZM22.5229 98.6049L22.5238 98.6068C22.911 99.3917 22.9256 100.291 22.4959 101.353L22.0401 102.479L13.9866 99.2201L14.5117 97.9228C14.9321 96.9125 15.552 96.3188 16.3567 96.0571L16.3568 96.0571L16.3605 96.0559C17.1786 95.7827 18.185 95.8518 19.4174 96.3505L20.0864 96.6213C21.3531 97.1339 22.1336 97.8078 22.5229 98.6049Z" fill="white" stroke="white"/>
<path d="M29.4402 79.5135L29.6858 79.078L29.2503 78.8324L28.0892 78.1776L27.6537 77.932L27.408 78.3675L25.0219 82.5987L22.4317 81.138L25.2016 76.2264L25.4472 75.7909L25.0117 75.5452L23.8432 74.8863L23.4076 74.6406L23.162 75.0762L19.3457 81.8433L19.1001 82.2788L19.5356 82.5244L30.3038 88.5971L30.7394 88.8427L30.985 88.4072L34.843 81.5661L35.0886 81.1306L34.6531 80.885L33.4919 80.2302L33.0564 79.9846L32.8108 80.4201L29.9992 85.4057L27.054 83.7447L29.4402 79.5135Z" fill="white" stroke="white"/>
<path d="M33.7465 60.2813L38.9837 68.0205L30.091 65.1673L29.7515 65.0584L29.5379 65.3438L28.4747 66.7646L28.0443 67.3397L28.733 67.5436L41.373 71.2864L41.7067 71.3852L41.9153 71.1065L42.7801 69.9509L42.9885 69.6724L42.7998 69.3801L35.6489 58.3023L35.2592 57.6984L34.8285 58.2739L33.7602 59.7015L33.547 59.9865L33.7465 60.2813Z" fill="white" stroke="white"/>
<path d="M52.3089 50.3899L52.6574 50.0314L52.2989 49.6829L51.3432 48.7536L50.9847 48.405L50.6362 48.7635L47.2498 52.2462L45.1178 50.1732L49.0487 46.1305L49.3973 45.772L49.0388 45.4234L48.077 44.4882L47.7185 44.1397L47.3699 44.4981L41.954 50.0682L41.6055 50.4267L41.9639 50.7752L50.8273 59.3934L51.1858 59.7419L51.5344 59.3834L57.0095 53.7525L57.358 53.394L56.9996 53.0455L56.0438 52.1162L55.6854 51.7676L55.3368 52.1261L51.3467 56.2298L48.9225 53.8726L52.3089 50.3899Z" fill="white" stroke="white"/>
<path d="M68.9858 41.1185L68.6731 40.7283L68.283 41.041L64.1016 44.3923L57.5165 36.1761L57.2038 35.786L56.8137 36.0987L55.535 37.1235L55.1448 37.4362L55.4575 37.8264L63.189 47.4729L63.5017 47.863L63.8919 47.5503L69.7421 42.8615L70.1322 42.5488L69.8195 42.1587L68.9858 41.1185Z" fill="white" stroke="white"/>
<path d="M84.0895 30L84.0894 29.9988C83.9618 28.9287 83.5614 27.8496 82.9084 26.764L82.5057 26.0947C81.8556 25.014 81.0917 24.1574 80.2068 23.5434C79.3169 22.9231 78.3658 22.5917 77.3612 22.5728C76.3632 22.5461 75.3998 22.8199 74.4791 23.3737C73.5698 23.9207 72.8836 24.6447 72.4387 25.5454C71.9937 26.4424 71.8426 27.4385 71.968 28.5164C72.0933 29.5931 72.4862 30.6669 73.1288 31.7352L73.5884 32.4991L73.5883 32.4992L73.5909 32.5033C74.2319 33.546 74.9901 34.3734 75.8714 34.9686L75.8714 34.9686L75.8746 34.9708C76.7592 35.5584 77.7029 35.8746 78.6985 35.9016L78.7012 35.9017C79.6947 35.9233 80.6492 35.6524 81.5566 35.1065C82.4813 34.5503 83.1769 33.83 83.6196 32.942C84.0631 32.0526 84.2141 31.0663 84.0895 30ZM77.9959 25.2035L77.9975 25.2041C78.7648 25.5137 79.5241 26.2241 80.2504 27.4315L80.7215 28.2147C81.415 29.4 81.6754 30.387 81.5927 31.1977C81.51 31.9768 81.1107 32.5927 80.3277 33.0637C79.5604 33.5252 78.8126 33.5842 78.0348 33.2638C77.2362 32.9263 76.4769 32.215 75.778 31.0532L75.3113 30.2773C74.6411 29.1308 74.3897 28.1523 74.4764 27.3226C74.5628 26.506 74.9613 25.8856 75.7167 25.4312C76.5008 24.9595 77.2444 24.8973 77.9959 25.2035Z" fill="white" stroke="white"/>
<path d="M96.5517 27.0104L97.0118 26.8146L96.8161 26.3545L95.1169 22.3612L97.3367 21.4168C98.6882 20.8417 99.6658 20.0577 100.172 19.0263L100.172 19.026C100.687 17.9752 100.649 16.8211 100.135 15.6133C99.6404 14.4507 98.8282 13.6497 97.7011 13.2648C96.5779 12.8771 95.3373 13.0052 94.0154 13.5677L89.8199 15.3529L89.3598 15.5487L89.5555 16.0088L94.3958 27.3843L94.5916 27.8444L95.0517 27.6486L96.5517 27.0104ZM96.4388 19.2633L94.2035 20.2145L92.6968 16.6735L95.0131 15.6879C95.6784 15.4221 96.2206 15.409 96.6743 15.5788C97.1265 15.7481 97.4783 16.0872 97.7216 16.6588C97.9839 17.2753 97.9768 17.7596 97.7877 18.1613C97.5905 18.5704 97.1739 18.9505 96.4388 19.2633Z" fill="white" stroke="white"/>
<path d="M129.74 5.67725L130.232 5.58494L130.139 5.09354L129.892 3.77506L129.799 3.28365L129.308 3.37596L119.912 5.14092L119.42 5.23322L119.513 5.72463L119.76 7.04311L119.852 7.53451L120.344 7.44221L123.749 6.80251L125.692 17.1427L125.784 17.6341L126.275 17.5418L127.869 17.2424L128.361 17.1501L128.268 16.6587L126.326 6.31852L129.74 5.67725Z" fill="white" stroke="white"/>
<path d="M151.181 14.8487L151.681 14.8255L151.658 14.326L151.084 1.97685L151.061 1.47739L150.561 1.50059L148.925 1.57663L148.425 1.59983L148.448 2.09929L148.672 6.90931L143.445 7.15209L143.222 2.34207L143.198 1.84261L142.699 1.86581L141.071 1.94146L140.571 1.96466L140.594 2.46412L141.168 14.8133L141.191 15.3128L141.691 15.2896L143.319 15.2139L143.819 15.1907L143.795 14.6913L143.553 9.48262L148.78 9.23984L149.022 14.4485L149.045 14.948L149.545 14.9248L151.181 14.8487Z" fill="white" stroke="white"/>
<path d="M169.128 10.0369L169.626 10.0807L169.67 9.5826L169.787 8.25467L169.83 7.7566L169.332 7.71281L164.493 7.28744L164.754 4.3252L170.371 4.81897L170.869 4.86275L170.913 4.36467L171.03 3.02829L171.074 2.53021L170.576 2.48643L162.837 1.80612L162.339 1.76234L162.295 2.26042L161.212 14.5754L161.169 15.0735L161.667 15.1173L169.49 15.8051L169.988 15.8488L170.032 15.3508L170.149 14.0228L170.193 13.5248L169.695 13.481L163.993 12.9798L164.289 9.61153L169.128 10.0369Z" fill="white" stroke="white"/>
<path d="M191.318 20.239L191.796 20.3864L191.943 19.9086L193.222 15.7616L195.527 16.4725C196.931 16.9053 198.184 16.9373 199.236 16.476L199.236 16.4759C200.307 16.0053 201.023 15.0993 201.41 13.845C201.782 12.6376 201.679 11.5016 201.066 10.4802C200.458 9.45926 199.428 8.75656 198.055 8.33318L193.698 6.98949L193.22 6.84214L193.073 7.31994L189.43 19.1334L189.282 19.6112L189.76 19.7586L191.318 20.239ZM196.231 14.248L193.91 13.5321L195.044 9.85481L197.449 10.5967C198.129 10.8229 198.552 11.1628 198.789 11.5853C199.025 12.0064 199.075 12.4925 198.892 13.0861C198.694 13.7264 198.376 14.0918 197.973 14.2766C197.558 14.4619 196.994 14.4835 196.231 14.248Z" fill="white" stroke="white"/>
<path d="M216.153 29.0275L215.76 23.5881C216.415 23.5581 217.023 23.3922 217.576 23.0822C218.296 22.6833 218.838 22.0786 219.201 21.2928C219.756 20.0936 219.831 18.9407 219.338 17.8855C218.858 16.8518 217.907 16.0458 216.581 15.4323L212.866 13.7142L212.412 13.5043L212.202 13.9581L207.013 25.1784L206.803 25.6322L207.256 25.8421L208.744 26.5301L209.198 26.74L209.407 26.2862L211.297 22.201L213.207 23.0846L213.525 28.4513L213.543 28.7499L213.814 28.8755L215.402 29.6098L215.856 29.8197L216.066 29.3659L216.108 29.2734L216.163 29.1563L216.153 29.0275ZM212.276 20.0835L213.824 16.7372L215.635 17.5746C216.347 17.91 216.739 18.2995 216.914 18.7079L216.914 18.7079L216.915 18.7107C217.09 19.1111 217.083 19.5868 216.806 20.185C216.565 20.7056 216.218 21.0042 215.76 21.1377L215.76 21.1377L215.757 21.1385C215.295 21.2757 214.752 21.2284 214.096 20.9251L212.276 20.0835Z" fill="white" stroke="white"/>
<path d="M233.234 36.8212L233.235 36.8205C234.139 36.234 234.931 35.3988 235.617 34.3339L236.04 33.6773C236.723 32.6172 237.155 31.5538 237.316 30.4889C237.48 29.4166 237.358 28.4168 236.932 27.5068C236.516 26.5995 235.845 25.8556 234.942 25.2735C234.05 24.6986 233.098 24.402 232.093 24.4C231.092 24.3963 230.131 24.6999 229.219 25.2879C228.308 25.8752 227.518 26.7014 226.842 27.7493L226.359 28.4987L226.359 28.4987L226.357 28.5028C225.704 29.538 225.295 30.5834 225.15 31.6368L225.15 31.6368L225.149 31.6406C225.012 32.6938 225.145 33.6802 225.559 34.5856L225.561 34.5881C225.979 35.4892 226.643 36.2264 227.533 36.8C228.441 37.3846 229.394 37.6912 230.386 37.697C231.38 37.7027 232.332 37.4033 233.234 36.8212ZM234.851 29.2368L234.851 29.2385C234.912 30.0636 234.609 31.0584 233.846 32.2427L233.35 33.011C232.593 34.1562 231.822 34.8252 231.058 35.1085C230.322 35.3779 229.593 35.2911 228.825 34.7962C228.072 34.3111 227.69 33.6659 227.634 32.8266C227.585 31.961 227.888 30.9658 228.623 29.8262L229.113 29.0651C229.847 27.958 230.614 27.3008 231.397 27.0127C232.168 26.7301 232.9 26.814 233.641 27.2916C234.411 27.7873 234.794 28.4273 234.851 29.2368Z" fill="white" stroke="white"/>
<path d="M240.125 44.913L239.798 45.2916L240.177 45.6182L242.768 47.8531L242.768 47.8532L242.772 47.8565C243.673 48.618 244.64 49.1135 245.672 49.3204C246.712 49.5317 247.738 49.4305 248.738 49.0223C249.74 48.6189 250.642 47.9403 251.446 47.0082L251.961 46.4103L251.963 46.4084C252.745 45.4926 253.271 44.5108 253.522 43.4634C253.778 42.4165 253.735 41.3899 253.387 40.3959C253.039 39.4033 252.419 38.5313 251.547 37.7791L248.905 35.4998L248.526 35.1732L248.2 35.5518L240.125 44.913ZM246.827 46.9453L246.825 46.9455C245.958 47.0599 245.101 46.7847 244.234 46.0366L243.314 45.2429L248.988 38.6642L250.048 39.5784C250.87 40.3012 251.233 41.079 251.222 41.9252L251.222 41.9252L251.222 41.9291C251.218 42.7916 250.829 43.7224 249.96 44.7291L249.489 45.2756C248.596 46.3104 247.707 46.8329 246.827 46.9453Z" fill="white" stroke="white"/>
<path d="M269.504 56.5738L269.878 56.2422L269.547 55.868L268.46 54.6413L268.129 54.2671L267.754 54.5986L261.481 60.1556C260.882 60.6869 260.324 60.8892 259.796 60.8573L259.793 60.8571C259.275 60.8288 258.739 60.5571 258.185 59.9321C257.641 59.3179 257.435 58.7545 257.467 58.2293C257.503 57.6959 257.774 57.1645 258.373 56.6339L264.64 51.0826L265.014 50.751L264.682 50.3767L263.613 49.1692L263.281 48.7949L262.907 49.1265L256.602 54.7116L256.602 54.7116L256.599 54.7146C255.565 55.6466 255.004 56.7434 254.988 57.9936C254.973 59.2323 255.481 60.3973 256.439 61.4791L256.446 61.4865L256.452 61.4936L256.752 61.8064L256.758 61.8125L256.764 61.8183C257.726 62.7571 258.801 63.286 259.981 63.3439C261.167 63.4062 262.249 62.9927 263.21 62.1493L263.212 62.1477L269.504 56.5738Z" fill="white" stroke="white"/>
<path d="M274.525 78.0472L275.025 77.7905L274.712 77.3239L273.799 75.9631L273.561 75.6074L273.173 75.7885C272.284 76.2029 271.643 76.2798 271.197 76.1534C270.745 76.0248 270.276 75.6647 269.809 74.9689C269.335 74.2608 269.253 73.5587 269.538 72.8102C269.836 72.0306 270.48 71.2772 271.54 70.566L272.534 69.8991C273.663 69.1417 274.627 68.8353 275.444 68.8856C276.247 68.9395 276.886 69.3133 277.387 70.0598C277.812 70.6936 277.939 71.2368 277.861 71.7117L277.861 71.7117L277.86 71.7147C277.784 72.1961 277.455 72.7538 276.758 73.3822L276.436 73.6723L276.678 74.0322L277.591 75.3931L277.898 75.8521L278.324 75.4999C279.402 74.609 280.065 73.5589 280.253 72.3494C280.446 71.1315 280.117 69.9268 279.332 68.7554C278.734 67.8647 277.984 67.2053 277.08 66.7991C276.18 66.3893 275.202 66.2686 274.162 66.4239L274.162 66.4239L274.159 66.4243C273.123 66.5846 272.103 67.011 271.099 67.6841L270.112 68.3463C268.586 69.3702 267.575 70.6027 267.153 72.0563L267.153 72.0579C266.731 73.5266 266.982 74.9426 267.872 76.2685C268.672 77.4615 269.659 78.2516 270.841 78.5683L270.842 78.5684C272.032 78.8865 273.269 78.6926 274.525 78.0472Z" fill="white" stroke="white"/>
<path d="M288.994 91.0672L289.214 91.516L289.663 91.2955L290.867 90.7038L291.316 90.4833L291.095 90.0345L286.878 81.454L286.658 81.0053L286.209 81.2258L285.005 81.8175L284.556 82.038L284.777 82.4868L286.305 85.5967L276.863 90.2369L276.414 90.4574L276.635 90.9061L277.35 92.3616L277.57 92.8104L278.019 92.5898L287.461 87.9497L288.994 91.0672Z" fill="white" stroke="white"/>
<path d="M294.84 117.853L299.378 113.893L299.608 113.693L299.535 113.398L299.091 111.583L298.89 110.762L298.267 111.334L291.846 117.231L287.493 118.297L287.007 118.416L287.126 118.901L287.514 120.485L287.632 120.97L288.118 120.852L292.472 119.786L300.891 122.049L301.707 122.268L301.506 121.447L301.066 119.649L300.994 119.354L300.699 119.282L294.84 117.853Z" fill="white" stroke="white"/>
<path d="M294.042 143.178L294.043 143.178C295.065 143.519 296.212 143.618 297.473 143.49L298.25 143.411C299.505 143.284 300.605 142.959 301.538 142.42C302.478 141.88 303.184 141.161 303.63 140.261C304.079 139.369 304.243 138.381 304.134 137.312C304.028 136.256 303.665 135.327 303.041 134.54C302.419 133.755 301.583 133.194 300.554 132.847C299.527 132.501 298.388 132.399 297.148 132.524L296.261 132.614L296.261 132.614L296.256 132.615C295.039 132.75 293.968 133.082 293.053 133.626L293.053 133.626L293.05 133.628C292.141 134.177 291.453 134.896 291.004 135.785L291.002 135.787C290.559 136.677 290.397 137.655 290.504 138.709C290.612 139.783 290.967 140.719 291.581 141.498C292.197 142.279 293.024 142.836 294.042 143.178ZM300.979 139.713L300.978 139.714C300.371 140.276 299.404 140.659 298.003 140.801L297.093 140.893C295.725 141.015 294.722 140.83 294.024 140.409C293.354 140.002 292.968 139.378 292.876 138.469C292.785 137.578 293.051 136.876 293.672 136.31C294.318 135.731 295.286 135.348 296.635 135.211L297.535 135.12C298.858 135.003 299.85 135.193 300.564 135.625C301.266 136.052 301.657 136.677 301.746 137.554C301.838 138.464 301.577 139.163 300.979 139.713Z" fill="white" stroke="white"/>
<path d="M303.993 163.781L304.493 163.801L304.512 163.301L304.575 161.663L304.594 161.164L304.094 161.145L295.72 160.823C294.919 160.792 294.377 160.553 294.017 160.165L294.015 160.163C293.661 159.784 293.461 159.217 293.493 158.383C293.525 157.563 293.765 157.014 294.151 156.656C294.546 156.295 295.109 156.099 295.909 156.13L304.274 156.451L304.774 156.47L304.793 155.97L304.855 154.358L304.874 153.859L304.375 153.839L295.958 153.516L295.958 153.516L295.954 153.516C294.563 153.475 293.399 153.879 292.523 154.772C291.655 155.656 291.217 156.849 291.162 158.294L291.161 158.303L291.161 158.313L291.162 158.746L291.162 158.755L291.162 158.763C291.208 160.107 291.619 161.232 292.432 162.09C293.245 162.954 294.313 163.404 295.591 163.459L295.593 163.459L303.993 163.781Z" fill="white" stroke="white"/>
<path d="M288.663 183.438L288.18 183.312L288.053 183.796L287.19 187.107L287.19 187.107L287.189 187.112C286.903 188.257 286.885 189.344 287.154 190.361C287.423 191.388 287.967 192.264 288.774 192.981C289.578 193.703 290.585 194.212 291.776 194.523L292.54 194.722L292.542 194.722C293.709 195.02 294.822 195.059 295.873 194.823C296.926 194.591 297.828 194.1 298.566 193.349C299.304 192.599 299.813 191.658 300.104 190.544L300.984 187.167L301.11 186.683L300.626 186.557L288.663 183.438ZM289.795 190.35L289.794 190.349C289.309 189.62 289.178 188.73 289.467 187.622L289.774 186.446L298.181 188.637L297.828 189.992C297.541 191.048 297.003 191.717 296.239 192.08L296.239 192.08L296.236 192.082C295.46 192.458 294.453 192.52 293.166 192.185L292.468 192.002C291.145 191.658 290.284 191.09 289.795 190.35Z" fill="white" stroke="white"/>
<path d="M279.969 210.574L285.386 209.94C285.445 210.594 285.638 211.194 285.972 211.732C286.402 212.434 287.03 212.949 287.831 213.277C289.054 213.778 290.209 213.803 291.241 213.263C292.253 212.739 293.016 211.753 293.57 210.4L295.123 206.614L295.312 206.151L294.85 205.961L283.411 201.272L282.949 201.082L282.759 201.545L282.137 203.061L281.948 203.524L282.41 203.713L286.575 205.421L285.777 207.368L280.429 207.923L280.132 207.953L280.018 208.23L279.355 209.849L279.165 210.311L279.627 210.501L279.722 210.54L279.841 210.589L279.969 210.574ZM288.734 206.306L292.145 207.704L291.388 209.55C291.085 210.276 290.713 210.685 290.313 210.878L290.313 210.878L290.31 210.879C289.918 211.071 289.442 211.086 288.832 210.836C288.301 210.618 287.988 210.284 287.834 209.832L287.834 209.832L287.833 209.829C287.676 209.374 287.699 208.829 287.973 208.161L288.734 206.306Z" fill="white" stroke="white"/>
<path d="M276.595 227.341L276.347 227.775L276.782 228.023L277.94 228.683L278.374 228.93L278.622 228.496L281.027 224.275L283.611 225.748L280.819 230.647L280.571 231.081L281.006 231.329L282.171 231.993L282.605 232.241L282.853 231.806L286.7 225.057L286.948 224.622L286.513 224.375L275.773 218.253L275.338 218.006L275.091 218.44L271.202 225.263L270.954 225.698L271.389 225.945L272.547 226.606L272.981 226.853L273.229 226.419L276.063 221.446L279 223.12L276.595 227.341Z" fill="white" stroke="white"/>
<path d="M265.829 233.381L265.617 233.661L265.809 233.955L267.49 236.534L264.791 240.108L261.839 239.206L261.505 239.104L261.294 239.383L260.286 240.718L259.848 241.298L260.546 241.5L273.261 245.178L273.592 245.273L273.799 244.999L274.659 243.861L274.866 243.586L274.684 243.294L267.665 232.076L267.28 231.46L266.842 232.039L265.829 233.381ZM268.844 238.627L271.056 242.034L267.171 240.842L268.844 238.627Z" fill="white" stroke="white"/>
<path d="M261.801 258.538L262.11 258.675L262.352 258.438L263.857 256.966L264.215 256.616L263.865 256.259L255.222 247.42L254.872 247.063L254.515 247.412L253.349 248.552L252.992 248.902L253.341 249.259L256.707 252.701L256.713 252.707L256.718 252.712L258.434 254.361L251.118 251.17L250.81 251.036L250.569 251.271L249.676 252.144L249.436 252.379L249.563 252.691L252.606 260.113L250.967 258.335L250.962 258.33L250.957 258.325L247.591 254.883L247.242 254.525L246.884 254.875L245.719 256.015L245.361 256.364L245.711 256.722L254.354 265.56L254.704 265.918L255.061 265.568L256.573 264.09L256.815 263.853L256.685 263.541L253 254.656L261.801 258.538Z" fill="white" stroke="white"/>
<path d="M225.018 271.709L227.017 279.824L221.029 274.034L220.757 273.771L220.43 273.961L219.145 274.708L218.805 274.906L218.917 275.283L222.541 287.476L222.722 288.086L223.271 287.766L224.688 286.942L225.033 286.742L224.914 286.361L222.52 278.719L228.329 284.401L228.601 284.667L228.93 284.475L230.119 283.784L230.446 283.594L230.352 283.228L228.337 275.352L233.812 281.188L234.084 281.479L234.428 281.279L235.837 280.459L236.386 280.14L235.947 279.681L227.149 270.496L226.877 270.212L226.537 270.41L225.252 271.157L224.928 271.345L225.018 271.709Z" fill="white" stroke="white"/>
<path d="M206.472 280.707L206.011 280.901L206.205 281.362L210.993 292.759L211.187 293.22L211.648 293.027L213.151 292.395L213.612 292.202L213.418 291.741L208.629 280.343L208.436 279.882L207.975 280.076L206.472 280.707Z" fill="white" stroke="white"/>
<path d="M191.037 297.591L190.557 297.731L190.697 298.211L191.074 299.499L191.214 299.979L191.694 299.839L200.871 297.157L201.351 297.017L201.21 296.537L200.834 295.249L200.694 294.769L200.214 294.91L196.888 295.882L193.937 285.783L193.797 285.303L193.317 285.443L191.76 285.898L191.28 286.038L191.421 286.518L194.371 296.617L191.037 297.591Z" fill="white" stroke="white"/>
<path d="M168.794 290.575L168.3 290.648L168.372 291.142L170.159 303.375L170.231 303.87L170.726 303.798L172.347 303.561L172.842 303.488L172.77 302.994L172.074 298.229L177.251 297.473L177.947 302.238L178.019 302.732L178.514 302.66L180.127 302.424L180.622 302.352L180.549 301.857L178.763 289.625L178.691 289.13L178.196 289.202L176.583 289.438L176.088 289.51L176.16 290.005L176.914 295.164L171.736 295.921L170.983 290.761L170.911 290.266L170.416 290.339L168.794 290.575Z" fill="white" stroke="white"/>
</svg>
