<svg width="126" height="23" viewBox="0 0 126 23" fill="none" xmlns="http://www.w3.org/2000/svg">
<path d="M7.35344 18.24C5.14544 18.24 3.43344 17.672 2.21744 16.536C1.01744 15.4 0.377437 13.8 0.297437 11.736C0.281437 11.304 0.273438 10.6 0.273438 9.62396C0.273438 8.63196 0.281437 7.91196 0.297437 7.46396C0.377437 5.41596 1.02544 3.82396 2.24144 2.68796C3.47344 1.53596 5.17744 0.959961 7.35344 0.959961C8.77744 0.959961 10.0174 1.20796 11.0734 1.70396C12.1294 2.18396 12.9454 2.84796 13.5214 3.69596C14.0974 4.52796 14.4014 5.47196 14.4334 6.52796V6.57596C14.4334 6.70396 14.3774 6.81596 14.2654 6.91196C14.1694 6.99196 14.0574 7.03196 13.9294 7.03196H11.6494C11.4574 7.03196 11.3134 6.99196 11.2174 6.91196C11.1214 6.83196 11.0414 6.67996 10.9774 6.45596C10.7214 5.44796 10.2974 4.74396 9.70544 4.34396C9.11344 3.92796 8.32144 3.71996 7.32944 3.71996C5.02544 3.71996 3.82544 5.00796 3.72944 7.58396C3.71344 8.01596 3.70544 8.67996 3.70544 9.57596C3.70544 10.472 3.71344 11.152 3.72944 11.616C3.82544 14.192 5.02544 15.48 7.32944 15.48C8.32144 15.48 9.11344 15.272 9.70544 14.856C10.3134 14.44 10.7374 13.736 10.9774 12.744C11.0254 12.52 11.0974 12.368 11.1934 12.288C11.3054 12.208 11.4574 12.168 11.6494 12.168H13.9294C14.0734 12.168 14.1934 12.216 14.2894 12.312C14.4014 12.408 14.4494 12.528 14.4334 12.672C14.4014 13.728 14.0974 14.68 13.5214 15.528C12.9454 16.36 12.1294 17.024 11.0734 17.52C10.0174 18 8.77744 18.24 7.35344 18.24Z" fill="white"/>
<path d="M21.7917 18.24C19.9197 18.24 18.4717 17.76 17.4477 16.8C16.4237 15.824 15.8717 14.496 15.7917 12.816L15.7677 11.76L15.7917 10.704C15.8717 9.03996 16.4317 7.71996 17.4717 6.74396C18.5117 5.76796 19.9517 5.27996 21.7917 5.27996C23.6317 5.27996 25.0717 5.76796 26.1117 6.74396C27.1517 7.71996 27.7117 9.03996 27.7917 10.704C27.8077 10.896 27.8157 11.248 27.8157 11.76C27.8157 12.272 27.8077 12.624 27.7917 12.816C27.7117 14.496 27.1597 15.824 26.1357 16.8C25.1117 17.76 23.6637 18.24 21.7917 18.24ZM21.7917 15.864C22.6397 15.864 23.2957 15.6 23.7597 15.072C24.2237 14.528 24.4797 13.736 24.5277 12.696C24.5437 12.536 24.5517 12.224 24.5517 11.76C24.5517 11.296 24.5437 10.984 24.5277 10.824C24.4797 9.78396 24.2237 8.99996 23.7597 8.47196C23.2957 7.92796 22.6397 7.65596 21.7917 7.65596C20.9437 7.65596 20.2877 7.92796 19.8237 8.47196C19.3597 8.99996 19.1037 9.78396 19.0557 10.824L19.0317 11.76L19.0557 12.696C19.1037 13.736 19.3597 14.528 19.8237 15.072C20.2877 15.6 20.9437 15.864 21.7917 15.864Z" fill="white"/>
<path d="M34.3868 18.24C32.7708 18.24 31.5308 17.72 30.6668 16.68C29.8028 15.64 29.3388 14.256 29.2748 12.528L29.2508 11.736L29.2748 10.968C29.3228 9.28796 29.7788 7.91996 30.6428 6.86396C31.5228 5.80796 32.7708 5.27996 34.3868 5.27996C35.9388 5.27996 37.1708 5.80796 38.0828 6.86396V1.53596C38.0828 1.35996 38.1388 1.22396 38.2508 1.12796C38.3628 1.01596 38.4988 0.959961 38.6588 0.959961H40.6988C40.8748 0.959961 41.0108 1.01596 41.1068 1.12796C41.2188 1.22396 41.2748 1.35996 41.2748 1.53596V17.424C41.2748 17.584 41.2188 17.72 41.1068 17.832C41.0108 17.944 40.8748 18 40.6988 18H38.8028C38.6428 18 38.5068 17.944 38.3948 17.832C38.2828 17.72 38.2268 17.584 38.2268 17.424V16.536C37.3148 17.672 36.0348 18.24 34.3868 18.24ZM35.2748 15.672C36.2028 15.672 36.8908 15.376 37.3388 14.784C37.7868 14.192 38.0348 13.464 38.0828 12.6C38.0988 12.408 38.1068 12.096 38.1068 11.664C38.1068 11.248 38.0988 10.944 38.0828 10.752C38.0508 9.95196 37.7948 9.27196 37.3148 8.71196C36.8508 8.13596 36.1708 7.84796 35.2748 7.84796C33.5468 7.84796 32.6268 8.91196 32.5148 11.04L32.4908 11.76L32.5148 12.48C32.6268 14.608 33.5468 15.672 35.2748 15.672Z" fill="white"/>
<path d="M49.1296 18.24C47.3536 18.24 45.9376 17.728 44.8816 16.704C43.8416 15.664 43.2896 14.208 43.2256 12.336L43.2016 11.736L43.2256 11.136C43.3056 9.31196 43.8656 7.87996 44.9056 6.83996C45.9616 5.79996 47.3696 5.27996 49.1296 5.27996C51.0176 5.27996 52.4736 5.85596 53.4976 7.00796C54.5376 8.15996 55.0576 9.69596 55.0576 11.616V12.12C55.0576 12.28 55.0016 12.416 54.8896 12.528C54.7776 12.64 54.6336 12.696 54.4576 12.696H46.4896V12.888C46.5216 13.768 46.7616 14.512 47.2096 15.12C47.6736 15.712 48.3056 16.008 49.1056 16.008C50.0496 16.008 50.8096 15.64 51.3856 14.904C51.5296 14.728 51.6416 14.616 51.7216 14.568C51.8176 14.52 51.9536 14.496 52.1296 14.496H54.1936C54.3376 14.496 54.4576 14.544 54.5536 14.64C54.6656 14.72 54.7216 14.824 54.7216 14.952C54.7216 15.336 54.4896 15.792 54.0256 16.32C53.5776 16.832 52.9296 17.28 52.0816 17.664C51.2336 18.048 50.2496 18.24 49.1296 18.24ZM51.7936 10.68V10.608C51.7936 9.66396 51.5536 8.90396 51.0736 8.32796C50.6096 7.75196 49.9616 7.46396 49.1296 7.46396C48.2976 7.46396 47.6496 7.75196 47.1856 8.32796C46.7216 8.90396 46.4896 9.66396 46.4896 10.608V10.68H51.7936Z" fill="white"/>
<path d="M63.6531 18.24C61.4451 18.24 59.7331 17.672 58.5171 16.536C57.3171 15.4 56.6771 13.8 56.5971 11.736C56.5811 11.304 56.5731 10.6 56.5731 9.62396C56.5731 8.63196 56.5811 7.91196 56.5971 7.46396C56.6771 5.41596 57.3251 3.82396 58.5411 2.68796C59.7731 1.53596 61.4771 0.959961 63.6531 0.959961C65.0771 0.959961 66.3171 1.20796 67.3731 1.70396C68.4291 2.18396 69.2451 2.84796 69.8211 3.69596C70.3971 4.52796 70.7011 5.47196 70.7331 6.52796V6.57596C70.7331 6.70396 70.6771 6.81596 70.5651 6.91196C70.4691 6.99196 70.3571 7.03196 70.2291 7.03196H67.9491C67.7571 7.03196 67.6131 6.99196 67.5171 6.91196C67.4211 6.83196 67.3411 6.67996 67.2771 6.45596C67.0211 5.44796 66.5971 4.74396 66.0051 4.34396C65.4131 3.92796 64.6211 3.71996 63.6291 3.71996C61.3251 3.71996 60.1251 5.00796 60.0291 7.58396C60.0131 8.01596 60.0051 8.67996 60.0051 9.57596C60.0051 10.472 60.0131 11.152 60.0291 11.616C60.1251 14.192 61.3251 15.48 63.6291 15.48C64.6211 15.48 65.4131 15.272 66.0051 14.856C66.6131 14.44 67.0371 13.736 67.2771 12.744C67.3251 12.52 67.3971 12.368 67.4931 12.288C67.6051 12.208 67.7571 12.168 67.9491 12.168H70.2291C70.3731 12.168 70.4931 12.216 70.5891 12.312C70.7011 12.408 70.7491 12.528 70.7331 12.672C70.7011 13.728 70.3971 14.68 69.8211 15.528C69.2451 16.36 68.4291 17.024 67.3731 17.52C66.3171 18 65.0771 18.24 63.6531 18.24Z" fill="white"/>
<path d="M76.1954 18.24C75.3794 18.24 74.6274 18.08 73.9394 17.76C73.2674 17.424 72.7314 16.976 72.3314 16.416C71.9474 15.856 71.7554 15.24 71.7554 14.568C71.7554 13.48 72.1954 12.6 73.0754 11.928C73.9554 11.256 75.1634 10.8 76.6994 10.56L79.9874 10.08V9.57596C79.9874 8.87196 79.8114 8.34396 79.4594 7.99196C79.1074 7.63996 78.5394 7.46396 77.7554 7.46396C77.2274 7.46396 76.7954 7.56796 76.4594 7.77596C76.1394 7.96796 75.8834 8.15996 75.6914 8.35196C75.4994 8.55996 75.3714 8.69596 75.3074 8.75996C75.2434 8.95196 75.1234 9.04796 74.9474 9.04796H73.0994C72.9554 9.04796 72.8274 8.99996 72.7154 8.90396C72.6194 8.80796 72.5714 8.67996 72.5714 8.51996C72.5874 8.11996 72.7794 7.66396 73.1474 7.15196C73.5314 6.63996 74.1154 6.19996 74.8994 5.83196C75.6834 5.46396 76.6434 5.27996 77.7794 5.27996C79.6674 5.27996 81.0434 5.70396 81.9074 6.55196C82.7714 7.39996 83.2034 8.51196 83.2034 9.88796V17.424C83.2034 17.584 83.1474 17.72 83.0354 17.832C82.9394 17.944 82.8034 18 82.6274 18H80.6834C80.5234 18 80.3874 17.944 80.2754 17.832C80.1634 17.72 80.1074 17.584 80.1074 17.424V16.488C79.7554 17 79.2514 17.424 78.5954 17.76C77.9554 18.08 77.1554 18.24 76.1954 18.24ZM77.0114 15.96C77.8914 15.96 78.6114 15.672 79.1714 15.096C79.7314 14.52 80.0114 13.68 80.0114 12.576V12.072L77.6114 12.456C76.6834 12.6 75.9794 12.832 75.4994 13.152C75.0354 13.472 74.8034 13.864 74.8034 14.328C74.8034 14.84 75.0194 15.24 75.4514 15.528C75.8834 15.816 76.4034 15.96 77.0114 15.96Z" fill="white"/>
<path d="M86.1383 18C85.9783 18 85.8423 17.944 85.7303 17.832C85.6183 17.72 85.5623 17.584 85.5623 17.424V6.09596C85.5623 5.93596 85.6183 5.79996 85.7303 5.68796C85.8423 5.57596 85.9783 5.51996 86.1383 5.51996H88.1063C88.2663 5.51996 88.4023 5.57596 88.5143 5.68796C88.6263 5.79996 88.6823 5.93596 88.6823 6.09596V7.07996C89.6263 5.87996 90.9623 5.27996 92.6903 5.27996C94.1623 5.27996 95.3303 5.76796 96.1943 6.74396C97.0583 7.70396 97.4903 9.01596 97.4903 10.68V17.424C97.4903 17.584 97.4343 17.72 97.3223 17.832C97.2263 17.944 97.0903 18 96.9143 18H94.8023C94.6423 18 94.5063 17.944 94.3943 17.832C94.2823 17.72 94.2263 17.584 94.2263 17.424V10.824C94.2263 9.87996 93.9943 9.15196 93.5303 8.63996C93.0823 8.11196 92.4263 7.84796 91.5623 7.84796C90.7143 7.84796 90.0423 8.11196 89.5463 8.63996C89.0663 9.16796 88.8263 9.89596 88.8263 10.824V17.424C88.8263 17.584 88.7703 17.72 88.6583 17.832C88.5623 17.944 88.4263 18 88.2503 18H86.1383Z" fill="white"/>
<path d="M104.451 18.24C102.835 18.24 101.595 17.72 100.731 16.68C99.8669 15.64 99.4029 14.256 99.3389 12.528L99.3149 11.736L99.3389 10.968C99.3869 9.28796 99.8429 7.91996 100.707 6.86396C101.587 5.80796 102.835 5.27996 104.451 5.27996C106.003 5.27996 107.235 5.80796 108.147 6.86396V1.53596C108.147 1.35996 108.203 1.22396 108.315 1.12796C108.427 1.01596 108.563 0.959961 108.723 0.959961H110.763C110.939 0.959961 111.075 1.01596 111.171 1.12796C111.283 1.22396 111.339 1.35996 111.339 1.53596V17.424C111.339 17.584 111.283 17.72 111.171 17.832C111.075 17.944 110.939 18 110.763 18H108.867C108.707 18 108.571 17.944 108.459 17.832C108.347 17.72 108.291 17.584 108.291 17.424V16.536C107.379 17.672 106.099 18.24 104.451 18.24ZM105.339 15.672C106.267 15.672 106.955 15.376 107.403 14.784C107.851 14.192 108.099 13.464 108.147 12.6C108.163 12.408 108.171 12.096 108.171 11.664C108.171 11.248 108.163 10.944 108.147 10.752C108.115 9.95196 107.859 9.27196 107.379 8.71196C106.915 8.13596 106.235 7.84796 105.339 7.84796C103.611 7.84796 102.691 8.91196 102.579 11.04L102.555 11.76L102.579 12.48C102.691 14.608 103.611 15.672 105.339 15.672Z" fill="white"/>
<path d="M116.074 22.56C115.946 22.56 115.834 22.512 115.738 22.416C115.642 22.32 115.594 22.208 115.594 22.08C115.594 21.936 115.626 21.808 115.69 21.696L117.562 17.256L112.954 6.38396C112.89 6.23996 112.858 6.12796 112.858 6.04796C112.874 5.90396 112.93 5.78396 113.026 5.68796C113.122 5.57596 113.242 5.51996 113.386 5.51996H115.33C115.634 5.51996 115.85 5.67196 115.978 5.97596L119.17 13.824L122.458 5.97596C122.586 5.67196 122.802 5.51996 123.106 5.51996H125.026C125.154 5.51996 125.266 5.56796 125.362 5.66396C125.474 5.75996 125.53 5.87196 125.53 5.99996C125.53 6.11196 125.498 6.23996 125.434 6.38396L118.642 22.104C118.498 22.408 118.274 22.56 117.97 22.56H116.074Z" fill="white"/>
</svg>
