<svg width="128" height="23" viewBox="0 0 128 23" fill="none" xmlns="http://www.w3.org/2000/svg">
<path d="M7.152 18.24C5.344 18.24 3.88 17.76 2.76 16.8C1.64 15.824 1.04 14.472 0.96 12.744L0.936 11.784L0.96 10.8C1.024 9.072 1.616 7.72 2.736 6.744C3.872 5.768 5.344 5.28 7.152 5.28C8.512 5.28 9.656 5.528 10.584 6.024C11.528 6.504 12.224 7.088 12.672 7.776C13.136 8.448 13.384 9.064 13.416 9.624C13.432 9.784 13.376 9.928 13.248 10.056C13.136 10.168 12.992 10.224 12.816 10.224H9.768C9.592 10.224 9.456 10.184 9.36 10.104C9.264 10.024 9.176 9.904 9.096 9.744C8.904 9.248 8.656 8.896 8.352 8.688C8.064 8.48 7.688 8.376 7.224 8.376C5.912 8.376 5.232 9.224 5.184 10.92L5.16 11.832L5.184 12.624C5.216 13.488 5.4 14.128 5.736 14.544C6.088 14.944 6.584 15.144 7.224 15.144C7.72 15.144 8.112 15.04 8.4 14.832C8.688 14.624 8.92 14.272 9.096 13.776C9.176 13.616 9.264 13.496 9.36 13.416C9.456 13.336 9.592 13.296 9.768 13.296H12.816C12.976 13.296 13.112 13.352 13.224 13.464C13.352 13.56 13.416 13.688 13.416 13.848C13.416 14.36 13.192 14.96 12.744 15.648C12.312 16.336 11.624 16.944 10.68 17.472C9.736 17.984 8.56 18.24 7.152 18.24ZM20.7562 18.24C18.7722 18.24 17.2442 17.768 16.1722 16.824C15.1002 15.88 14.5162 14.552 14.4202 12.84C14.4042 12.632 14.3962 12.272 14.3962 11.76C14.3962 11.248 14.4042 10.888 14.4202 10.68C14.5162 8.984 15.1162 7.664 16.2202 6.72C17.3242 5.76 18.8362 5.28 20.7562 5.28C22.6923 5.28 24.2123 5.76 25.3163 6.72C26.4203 7.664 27.0203 8.984 27.1163 10.68C27.1323 10.888 27.1403 11.248 27.1403 11.76C27.1403 12.272 27.1323 12.632 27.1163 12.84C27.0203 14.552 26.4362 15.88 25.3642 16.824C24.2922 17.768 22.7562 18.24 20.7562 18.24ZM20.7562 15.312C21.4602 15.312 21.9802 15.104 22.3162 14.688C22.6523 14.256 22.8443 13.6 22.8923 12.72C22.9083 12.56 22.9162 12.24 22.9162 11.76C22.9162 11.28 22.9083 10.96 22.8923 10.8C22.8443 9.936 22.6443 9.288 22.2923 8.856C21.9563 8.424 21.4443 8.208 20.7562 8.208C19.4283 8.208 18.7243 9.072 18.6442 10.8L18.6202 11.76L18.6442 12.72C18.6762 13.6 18.8602 14.256 19.1962 14.688C19.5483 15.104 20.0683 15.312 20.7562 15.312ZM33.4601 18.24C31.8921 18.24 30.6681 17.752 29.7881 16.776C28.9241 15.784 28.4521 14.392 28.3721 12.6L28.3481 11.76L28.3721 10.896C28.4361 9.168 28.9081 7.8 29.7881 6.792C30.6841 5.784 31.9081 5.28 33.4601 5.28C34.9161 5.28 36.0921 5.752 36.9881 6.696V1.56C36.9881 1.384 37.0441 1.24 37.1561 1.128C37.2681 1.016 37.4121 0.959999 37.5881 0.959999H40.5161C40.6921 0.959999 40.8361 1.016 40.9481 1.128C41.0601 1.24 41.1161 1.384 41.1161 1.56V17.4C41.1161 17.56 41.0601 17.704 40.9481 17.832C40.8361 17.944 40.6921 18 40.5161 18H37.8041C37.6441 18 37.5001 17.944 37.3721 17.832C37.2601 17.704 37.2041 17.56 37.2041 17.4V16.632C36.3241 17.704 35.0761 18.24 33.4601 18.24ZM34.7801 15.024C35.5001 15.024 36.0361 14.8 36.3881 14.352C36.7401 13.888 36.9401 13.296 36.9881 12.576C37.0041 12.368 37.0121 12.064 37.0121 11.664C37.0121 11.28 37.0041 10.984 36.9881 10.776C36.9561 10.12 36.7561 9.576 36.3881 9.144C36.0201 8.712 35.4841 8.496 34.7801 8.496C34.0281 8.496 33.4841 8.72 33.1481 9.168C32.8281 9.616 32.6441 10.232 32.5961 11.016C32.5801 11.176 32.5721 11.424 32.5721 11.76C32.5721 12.096 32.5801 12.344 32.5961 12.504C32.6441 13.288 32.8281 13.904 33.1481 14.352C33.4841 14.8 34.0281 15.024 34.7801 15.024ZM48.9848 18.24C47.0648 18.24 45.5528 17.72 44.4488 16.68C43.3448 15.64 42.7688 14.128 42.7208 12.144V11.304C42.7848 9.416 43.3688 7.944 44.4728 6.888C45.5928 5.816 47.0888 5.28 48.9608 5.28C50.3208 5.28 51.4648 5.56 52.3928 6.12C53.3368 6.664 54.0408 7.416 54.5048 8.376C54.9848 9.336 55.2248 10.44 55.2248 11.688V12.264C55.2248 12.424 55.1688 12.568 55.0568 12.696C54.9448 12.808 54.8008 12.864 54.6248 12.864H46.9448V13.032C46.9768 13.784 47.1608 14.392 47.4968 14.856C47.8328 15.32 48.3208 15.552 48.9608 15.552C49.3608 15.552 49.6888 15.472 49.9448 15.312C50.2008 15.136 50.4328 14.928 50.6408 14.688C50.7848 14.512 50.8968 14.408 50.9768 14.376C51.0728 14.328 51.2168 14.304 51.4088 14.304H54.3848C54.5288 14.304 54.6488 14.352 54.7448 14.448C54.8568 14.528 54.9128 14.64 54.9128 14.784C54.9128 15.2 54.6728 15.68 54.1928 16.224C53.7288 16.768 53.0488 17.24 52.1528 17.64C51.2568 18.04 50.2008 18.24 48.9848 18.24ZM51.0008 10.488V10.44C51.0008 9.656 50.8168 9.04 50.4488 8.592C50.0968 8.128 49.6008 7.896 48.9608 7.896C48.3368 7.896 47.8408 8.128 47.4728 8.592C47.1208 9.04 46.9448 9.656 46.9448 10.44V10.488H51.0008ZM63.9067 18.24C61.6187 18.24 59.8267 17.688 58.5307 16.584C57.2507 15.464 56.5707 13.848 56.4907 11.736C56.4747 11.304 56.4667 10.6 56.4667 9.624C56.4667 8.632 56.4747 7.912 56.4907 7.464C56.5707 5.384 57.2667 3.784 58.5787 2.664C59.8907 1.528 61.6667 0.959999 63.9067 0.959999C65.3147 0.959999 66.5787 1.2 67.6988 1.68C68.8187 2.144 69.6987 2.816 70.3387 3.696C70.9947 4.56 71.3307 5.576 71.3468 6.744V6.792C71.3468 6.92 71.2908 7.032 71.1787 7.128C71.0827 7.208 70.9707 7.248 70.8427 7.248H67.6027C67.3947 7.248 67.2347 7.208 67.1227 7.128C67.0107 7.032 66.9147 6.864 66.8347 6.624C66.6107 5.808 66.2587 5.24 65.7787 4.92C65.2987 4.584 64.6667 4.416 63.8827 4.416C61.9947 4.416 61.0187 5.472 60.9547 7.584C60.9387 8.016 60.9307 8.68 60.9307 9.576C60.9307 10.472 60.9387 11.152 60.9547 11.616C61.0187 13.728 61.9947 14.784 63.8827 14.784C64.6667 14.784 65.3067 14.616 65.8027 14.28C66.2987 13.928 66.6427 13.36 66.8347 12.576C66.8987 12.336 66.9867 12.176 67.0987 12.096C67.2107 12 67.3787 11.952 67.6027 11.952H70.8427C70.9867 11.952 71.1067 12 71.2027 12.096C71.3147 12.192 71.3628 12.312 71.3468 12.456C71.3307 13.624 70.9947 14.648 70.3387 15.528C69.6987 16.392 68.8187 17.064 67.6988 17.544C66.5787 18.008 65.3147 18.24 63.9067 18.24ZM76.6303 18.24C75.7823 18.24 75.0063 18.08 74.3023 17.76C73.6143 17.424 73.0703 16.976 72.6703 16.416C72.2863 15.84 72.0943 15.208 72.0943 14.52C72.0943 13.416 72.5423 12.528 73.4383 11.856C74.3503 11.184 75.5983 10.72 77.1823 10.464L80.1823 10.008V9.672C80.1823 9.064 80.0543 8.616 79.7983 8.328C79.5423 8.04 79.1103 7.896 78.5023 7.896C78.1343 7.896 77.8303 7.96 77.5903 8.088C77.3503 8.216 77.1023 8.392 76.8463 8.616C76.6223 8.808 76.4543 8.936 76.3423 9C76.2943 9.128 76.2063 9.192 76.0783 9.192H73.4623C73.3023 9.192 73.1663 9.144 73.0543 9.048C72.9583 8.936 72.9183 8.808 72.9343 8.664C72.9503 8.232 73.1583 7.752 73.5583 7.224C73.9743 6.696 74.5983 6.24 75.4303 5.856C76.2783 5.472 77.3183 5.28 78.5503 5.28C80.5183 5.28 81.9743 5.72 82.9183 6.6C83.8623 7.464 84.3343 8.632 84.3343 10.104V17.4C84.3343 17.56 84.2783 17.704 84.1663 17.832C84.0543 17.944 83.9103 18 83.7343 18H80.9503C80.7903 18 80.6463 17.944 80.5183 17.832C80.4063 17.704 80.3503 17.56 80.3503 17.4V16.56C79.9983 17.056 79.5023 17.464 78.8623 17.784C78.2383 18.088 77.4943 18.24 76.6303 18.24ZM77.7583 15.504C78.4943 15.504 79.0863 15.264 79.5343 14.784C79.9983 14.304 80.2303 13.6 80.2303 12.672V12.336L78.1903 12.696C76.7503 12.952 76.0303 13.456 76.0303 14.208C76.0303 14.608 76.1983 14.928 76.5343 15.168C76.8703 15.392 77.2783 15.504 77.7583 15.504ZM86.9226 18C86.7466 18 86.6026 17.944 86.4906 17.832C86.3786 17.72 86.3226 17.576 86.3226 17.4V6.12C86.3226 5.944 86.3786 5.8 86.4906 5.688C86.6026 5.576 86.7466 5.52 86.9226 5.52H89.6826C89.8586 5.52 90.0026 5.576 90.1146 5.688C90.2426 5.8 90.3066 5.944 90.3066 6.12V7.032C90.7386 6.504 91.2906 6.08 91.9626 5.76C92.6506 5.44 93.4266 5.28 94.2906 5.28C95.6986 5.28 96.8426 5.76 97.7226 6.72C98.6026 7.664 99.0426 8.992 99.0426 10.704V17.4C99.0426 17.56 98.9866 17.704 98.8746 17.832C98.7626 17.944 98.6186 18 98.4426 18H95.4186C95.2586 18 95.1146 17.944 94.9866 17.832C94.8746 17.704 94.8186 17.56 94.8186 17.4V10.848C94.8186 10.096 94.6346 9.52 94.2666 9.12C93.8986 8.704 93.3706 8.496 92.6826 8.496C92.0106 8.496 91.4826 8.704 91.0986 9.12C90.7146 9.52 90.5226 10.096 90.5226 10.848V17.4C90.5226 17.56 90.4666 17.704 90.3546 17.832C90.2426 17.944 90.0986 18 89.9226 18H86.9226ZM105.68 18.24C104.112 18.24 102.888 17.752 102.008 16.776C101.144 15.784 100.672 14.392 100.592 12.6L100.568 11.76L100.592 10.896C100.656 9.168 101.128 7.8 102.008 6.792C102.904 5.784 104.128 5.28 105.68 5.28C107.136 5.28 108.312 5.752 109.208 6.696V1.56C109.208 1.384 109.264 1.24 109.376 1.128C109.488 1.016 109.632 0.959999 109.808 0.959999H112.736C112.912 0.959999 113.056 1.016 113.168 1.128C113.28 1.24 113.336 1.384 113.336 1.56V17.4C113.336 17.56 113.28 17.704 113.168 17.832C113.056 17.944 112.912 18 112.736 18H110.024C109.864 18 109.72 17.944 109.592 17.832C109.48 17.704 109.424 17.56 109.424 17.4V16.632C108.544 17.704 107.296 18.24 105.68 18.24ZM107 15.024C107.72 15.024 108.256 14.8 108.608 14.352C108.96 13.888 109.16 13.296 109.208 12.576C109.224 12.368 109.232 12.064 109.232 11.664C109.232 11.28 109.224 10.984 109.208 10.776C109.176 10.12 108.976 9.576 108.608 9.144C108.24 8.712 107.704 8.496 107 8.496C106.248 8.496 105.704 8.72 105.368 9.168C105.048 9.616 104.864 10.232 104.816 11.016C104.8 11.176 104.792 11.424 104.792 11.76C104.792 12.096 104.8 12.344 104.816 12.504C104.864 13.288 105.048 13.904 105.368 14.352C105.704 14.8 106.248 15.024 107 15.024ZM117.773 22.56C117.629 22.56 117.509 22.512 117.413 22.416C117.317 22.32 117.269 22.2 117.269 22.056C117.269 21.944 117.293 21.84 117.341 21.744L119.213 17.232L114.605 6.336C114.557 6.208 114.533 6.112 114.533 6.048C114.565 5.904 114.629 5.784 114.725 5.688C114.821 5.576 114.941 5.52 115.085 5.52H117.821C118.157 5.52 118.389 5.688 118.517 6.024L121.253 13.008L124.061 6.024C124.221 5.688 124.461 5.52 124.781 5.52H127.469C127.613 5.52 127.733 5.576 127.829 5.688C127.941 5.784 127.997 5.896 127.997 6.024C127.997 6.088 127.973 6.192 127.925 6.336L121.133 22.056C121.005 22.392 120.765 22.56 120.413 22.56H117.773Z" fill="white"/>
</svg>
