<svg width="303" height="302" viewBox="0 0 303 302" fill="none" xmlns="http://www.w3.org/2000/svg">
<path d="M146.109 295.728C146.096 296.01 146.002 296.241 145.829 296.421C145.65 296.601 145.393 296.683 145.058 296.668C144.724 296.652 144.475 296.546 144.314 296.35C144.147 296.154 144.07 295.915 144.083 295.633C144.096 295.357 144.195 295.129 144.38 294.949C144.559 294.775 144.816 294.696 145.15 294.712C145.485 294.728 145.733 294.831 145.895 295.021C146.051 295.216 146.122 295.452 146.109 295.728Z" fill="white"/>
<path d="M117.487 289.433L117.696 287.735L116.944 289.111L112.128 297.081L110.75 296.704L110.727 287.408L110.797 285.818L110.076 287.413L105.834 295.358L104.193 294.908L110.587 283.347L112.075 283.754L112.155 293.477L112.092 294.475L112.547 293.584L117.663 285.285L119.151 285.692L118.754 298.896L117.121 298.449L117.487 289.433Z" fill="white"/>
<path d="M89.5232 281.502L94.6092 283.759L96.4552 279.6L90.5471 276.978L91.1088 275.712L98.5645 279.022L93.3555 290.757L85.9804 287.484L86.5456 286.21L92.3732 288.797L94.0475 285.025L88.9615 282.767L89.5232 281.502Z" fill="white"/>
<path d="M72.495 264.878L64.8477 275.192L61.9362 273.033C61.039 272.368 60.3926 271.582 59.9973 270.674C59.6019 269.766 59.4891 268.807 59.6587 267.799C59.8237 266.787 60.2557 265.804 60.9548 264.852L61.4432 264.193C62.1645 263.22 62.9855 262.508 63.906 262.056C64.8218 261.6 65.7745 261.436 66.7641 261.562C67.7489 261.685 68.7076 262.085 69.6403 262.762L72.495 264.878ZM64.3174 273.064L70.3103 264.982L68.8794 263.921C67.831 263.144 66.7748 262.865 65.7107 263.086C64.6419 263.304 63.661 264.015 62.7681 265.219L62.3217 265.821C61.4533 266.992 61.0555 268.106 61.1284 269.163C61.193 270.221 61.7271 271.129 62.7307 271.888L64.3174 273.064Z" fill="white"/>
<path d="M48.0845 251.975L52.0703 255.858L55.2455 252.599L50.6155 248.088L51.5816 247.097L57.4245 252.789L48.4648 261.986L42.6851 256.355L43.6574 255.357L48.2243 259.806L51.1042 256.85L47.1184 252.967L48.0845 251.975Z" fill="white"/>
<path d="M38.2825 240.457C38.8489 241.858 39.0984 243.006 39.0311 243.903C38.9555 244.798 38.5659 245.521 37.8622 246.072C37.066 246.695 36.1604 246.893 35.1454 246.664C34.1222 246.435 33.212 245.811 32.4147 244.793C31.8712 244.098 31.5216 243.375 31.3662 242.623C31.207 241.867 31.2476 241.156 31.4879 240.49C31.7245 239.819 32.1229 239.265 32.6831 238.826L33.7322 240.166C33.1211 240.645 32.7942 241.214 32.7514 241.875C32.7039 242.539 32.9575 243.225 33.5119 243.934C34.0265 244.591 34.5745 244.991 35.1561 245.133C35.7294 245.274 36.273 245.143 36.7868 244.741C37.1988 244.419 37.4125 243.971 37.4277 243.399C37.4347 242.827 37.2283 242.029 36.8084 241.006C36.385 239.979 36.132 239.117 36.0494 238.42C35.9585 237.722 36.0141 237.111 36.2161 236.587C36.4146 236.058 36.7707 235.593 37.2845 235.191C38.1039 234.549 39.0113 234.354 40.0068 234.605C40.9976 234.86 41.9115 235.522 42.7486 236.591C43.2922 237.286 43.6676 238.037 43.8748 238.845C44.0774 239.657 44.0759 240.409 43.8702 241.1C43.661 241.787 43.2624 242.36 42.6745 242.82L41.6254 241.48C42.2364 241.002 42.5444 240.398 42.5494 239.67C42.5461 238.941 42.2491 238.199 41.6584 237.445C41.1076 236.741 40.5419 236.314 39.9614 236.164C39.3808 236.013 38.8429 236.132 38.3475 236.52C37.8522 236.908 37.6062 237.38 37.6094 237.938C37.6081 238.499 37.8324 239.338 38.2825 240.457Z" fill="white"/>
<path d="M32.8831 222.655L33.7623 224.102L22.7891 230.769L21.9099 229.322L32.8831 222.655Z" fill="white"/>
<path d="M21.8343 204.659C22.5811 204.8 23.2568 205.164 23.8616 205.749C24.4585 206.332 24.9691 207.095 25.3933 208.039C25.8223 208.993 25.9805 209.94 25.8681 210.88C25.7502 211.823 25.37 212.684 24.7274 213.462C24.0823 214.236 23.218 214.872 22.1342 215.372L21.1127 215.831C19.3485 216.624 17.7968 216.829 16.4574 216.444C15.1157 216.055 14.1098 215.115 13.4398 213.624C12.8903 212.401 12.7618 211.276 13.0542 210.249C13.3412 209.224 14.0211 208.371 15.0939 207.689L15.788 209.233C14.3685 210.219 14.0081 211.49 14.7071 213.045C15.1722 214.08 15.8899 214.701 16.8602 214.91C17.8227 215.115 18.9942 214.911 20.3748 214.297L21.3319 213.867C22.6457 213.276 23.5564 212.506 24.064 211.556C24.5662 210.608 24.5872 209.622 24.1269 208.598C23.8666 208.019 23.5745 207.541 23.2505 207.165C22.9266 206.788 22.548 206.527 22.1146 206.38L19.4844 207.562L20.7027 210.273L19.4479 210.837L17.5391 206.59L21.8343 204.659Z" fill="white"/>
<path d="M16.7951 183.841L17.2523 185.48L9.45805 194.365L18.9888 191.707L19.446 193.346L7.07812 196.795L6.62093 195.156L14.453 186.243L4.87978 188.913L4.42732 187.29L16.7951 183.841Z" fill="white"/>
<path d="M9.60054 154.356L9.82077 159.731L13.2185 160.801L13.2899 162.546L0.260204 158.172L0.199551 156.692L12.8275 151.259L12.8986 152.994L9.60054 154.356ZM8.40767 159.277L8.22896 154.916L2.31812 157.347L8.40767 159.277Z" fill="white"/>
<path d="M14.1668 132.188L13.9899 133.881L3.4774 139.282L13.3182 140.31L13.1413 142.003L0.371094 140.668L0.547959 138.976L11.1062 133.562L1.22151 132.529L1.39655 130.854L14.1668 132.188Z" fill="white"/>
<path d="M16.0917 121.413L3.64844 118.246L4.54219 114.734C4.81764 113.651 5.30049 112.755 5.99073 112.045C6.68098 111.335 7.52492 110.867 8.52256 110.642C9.52164 110.411 10.5945 110.438 11.7411 110.724L12.5359 110.926C13.7096 111.225 14.68 111.714 15.4472 112.395C16.2157 113.069 16.7292 113.889 16.9875 114.852C17.2473 115.81 17.2408 116.849 16.9681 117.968L16.0917 121.413ZM5.41626 116.949L15.1675 119.43L15.6067 117.704C15.9286 116.439 15.7855 115.356 15.1776 114.455C14.5711 113.549 13.5414 112.911 12.0886 112.541L11.3622 112.356C9.94919 111.997 8.76762 112.051 7.81745 112.519C6.86303 112.98 6.225 113.818 5.90336 115.035L5.41626 116.949Z" fill="white"/>
<path d="M26.1616 91.9368L14.7422 86.0669L16.3992 82.8434C16.9098 81.85 17.581 81.0844 18.4126 80.5468C19.2442 80.0092 20.1714 79.7421 21.1941 79.7457C22.2196 79.744 23.2592 80.0106 24.3128 80.5456L25.0422 80.9205C26.1193 81.4742 26.9556 82.1685 27.551 83.0034C28.1491 83.833 28.4663 84.7463 28.5025 85.7432C28.5414 86.7349 28.3027 87.7459 27.7863 88.7761L26.1616 91.9368ZM16.7554 85.198L25.7043 89.798L26.5187 88.2137C27.1154 87.0529 27.2182 85.9656 26.8272 84.9515C26.439 83.9323 25.5782 83.08 24.2448 82.3946L23.5782 82.0519C22.2815 81.3854 21.1177 81.1739 20.0869 81.4174C19.0536 81.653 18.2441 82.3276 17.6585 83.4412L16.7554 85.198Z" fill="white"/>
<path d="M34.9288 65.7609L31.7451 70.3247L35.4771 72.9281L39.1754 67.6267L40.3109 68.4188L35.6438 75.1089L25.1133 67.7627L29.7299 61.1449L30.8726 61.9421L27.2248 67.1712L30.6096 69.5325L33.7933 64.9688L34.9288 65.7609Z" fill="white"/>
<path d="M47.5775 56.2222L42.2638 46.3535L43.5172 44.9902L49.7462 57.1859L48.7315 58.2895L36.0625 53.0984L37.3099 51.7416L47.5775 56.2222Z" fill="white"/>
<path d="M61.7526 37.963L57.4718 41.518L60.379 45.0186L65.3517 40.8889L66.2363 41.954L59.961 47.1655L51.7578 37.2878L57.9653 32.1327L58.8554 33.2046L53.9505 37.278L56.5873 40.4529L60.868 36.8979L61.7526 37.963Z" fill="white"/>
<path d="M74.7818 34.2165L79.9238 30.9632L80.664 32.1332L74.0837 36.2965L67.2188 25.446L68.657 24.5361L74.7818 34.2165Z" fill="white"/>
<path d="M95.977 17.7576C96.4951 18.9041 96.7549 19.9931 96.7565 21.0246C96.7557 22.0507 96.5034 22.9486 95.9996 23.7182C95.4958 24.4877 94.7724 25.0856 93.8295 25.5117C92.9081 25.9281 91.9894 26.0723 91.0735 25.9442C90.1552 25.8108 89.3089 25.4159 88.5348 24.7592C87.7636 24.0949 87.1233 23.2133 86.6139 22.1145L86.2326 21.2707C85.7242 20.1457 85.4707 19.0635 85.472 18.0242C85.4733 16.985 85.7273 16.0766 86.2341 15.2993C86.7438 14.5141 87.4593 13.9133 88.3808 13.4969C89.3183 13.0733 90.2463 12.9281 91.1646 13.0615C92.0858 13.1871 92.9342 13.594 93.7097 14.2823C94.4828 14.9652 95.1272 15.8772 95.6429 17.0183L95.977 17.7576ZM94.1007 17.6958C93.4737 16.3082 92.7145 15.3707 91.8233 14.8832C90.9296 14.3903 89.9818 14.3702 88.98 14.8229C88.0049 15.2635 87.4044 15.9833 87.1784 16.9821C86.9553 17.9732 87.1335 19.1314 87.713 20.4566L88.1016 21.3164C88.7093 22.6611 89.4687 23.5921 90.3798 24.1094C91.2939 24.6189 92.2465 24.6497 93.2376 24.2018C94.2341 23.7515 94.8421 23.0412 95.0618 22.0711C95.279 21.0955 95.0893 19.9264 94.4929 18.5637L94.1007 17.6958Z" fill="white"/>
<path d="M108.966 14.1662L110.352 18.9979L108.724 19.4648L105.184 7.1228L109.736 5.81698C111.086 5.42953 112.242 5.47109 113.202 5.94167C114.169 6.41062 114.815 7.21304 115.141 8.3489C115.484 9.54693 115.374 10.5787 114.809 11.4442C114.247 12.3024 113.269 12.9317 111.873 13.3321L108.966 14.1662ZM108.584 12.8354L111.508 11.9964C112.379 11.7468 112.987 11.352 113.334 10.8122C113.679 10.2668 113.74 9.60694 113.518 8.83275C113.307 8.0981 112.907 7.57686 112.317 7.26901C111.727 6.96116 111.026 6.91467 110.213 7.12953L107.195 7.99522L108.584 12.8354Z" fill="white"/>
<path d="M147.494 1.39131L143.373 1.61293L143.988 13.0429L142.306 13.1333L141.691 1.70337L137.579 1.92452L137.504 0.533203L147.419 -1.02912e-05L147.494 1.39131Z" fill="white"/>
<path d="M168.382 13.8496L166.687 13.6944L167.229 7.78423L160.783 7.19388L160.242 13.104L158.556 12.9496L159.727 0.16333L161.413 0.317755L160.909 5.81514L167.355 6.4055L167.858 0.908109L169.553 1.06334L168.382 13.8496Z" fill="white"/>
<path d="M187.605 11.5478L182.188 10.2737L181.146 14.7032L187.439 16.1832L187.122 17.5309L179.181 15.6632L182.121 3.16455L189.976 5.01208L189.657 6.36839L183.45 4.90854L182.505 8.92597L187.922 10.2001L187.605 11.5478Z" fill="white"/>
<path d="M211.136 20.9364L208.943 25.4597L207.42 24.7213L213.02 13.167L217.281 15.2323C218.545 15.8451 219.378 16.6473 219.78 17.6388C220.186 18.633 220.132 19.6617 219.617 20.7251C219.073 21.8467 218.302 22.5412 217.304 22.8086C216.313 23.0732 215.164 22.8889 213.858 22.2556L211.136 20.9364ZM211.739 19.6905L214.477 21.0174C215.292 21.4122 216.009 21.5243 216.627 21.3537C217.248 21.1777 217.734 20.7273 218.085 20.0026C218.419 19.3148 218.468 18.6595 218.235 18.0366C218.001 17.4137 217.509 16.911 216.761 16.5284L213.936 15.1593L211.739 19.6905Z" fill="white"/>
<path d="M231.279 32.0911L228.774 30.4108L225.88 34.7239L224.467 33.7756L231.621 23.1135L235.151 25.4818C236.352 26.2876 237.091 27.1801 237.368 28.1592C237.651 29.1417 237.442 30.1552 236.741 31.2C236.295 31.8639 235.726 32.3212 235.034 32.5719C234.347 32.8259 233.602 32.8603 232.798 32.6753L232.266 38.8813L232.207 38.9691L230.699 37.957L231.279 32.0911ZM229.546 29.2611L231.706 30.7105C232.404 31.1789 233.08 31.3701 233.732 31.284C234.389 31.2011 234.921 30.857 235.327 30.2517C235.77 29.5926 235.911 28.9547 235.751 28.3379C235.597 27.7243 235.15 27.1662 234.411 26.6634L232.258 25.2188L229.546 29.2611Z" fill="white"/>
<path d="M251.466 47.2793C250.622 48.2117 249.727 48.8844 248.781 49.2974C247.84 49.706 246.916 49.8328 246.01 49.6778C245.103 49.5228 244.266 49.098 243.499 48.4033C242.75 47.7245 242.251 46.9396 242.003 46.0486C241.759 45.1533 241.784 44.2198 242.077 43.248C242.379 42.2758 242.932 41.337 243.736 40.4315L244.358 39.7453C245.186 38.8303 246.078 38.1661 247.031 37.7527C247.985 37.3393 248.919 37.2099 249.834 37.3645C250.757 37.5186 251.594 37.9352 252.343 38.614C253.105 39.3047 253.609 40.0977 253.853 40.993C254.105 41.8879 254.07 42.8282 253.749 43.8139C253.431 44.7952 252.852 45.7499 252.011 46.678L251.466 47.2793ZM250.774 45.5341C251.797 44.4056 252.354 43.3355 252.445 42.3237C252.541 41.3076 252.181 40.4305 251.366 39.6924C250.573 38.9741 249.674 38.7105 248.667 38.9018C247.67 39.0926 246.679 39.718 245.695 40.778L245.061 41.4773C244.071 42.571 243.52 43.6387 243.409 44.6806C243.306 45.722 243.658 46.6078 244.464 47.338C245.275 48.0721 246.168 48.3464 247.146 48.1608C248.127 47.9708 249.123 47.3305 250.135 46.24L250.774 45.5341Z" fill="white"/>
<path d="M254.978 59.6447L264.883 51.4746L267.189 54.2706C267.9 55.1323 268.338 56.0513 268.503 57.0277C268.668 58.0041 268.547 58.9614 268.14 59.8995C267.736 60.8421 267.08 61.6917 266.172 62.4481L265.54 62.97C264.605 63.7406 263.637 64.2344 262.635 64.4515C261.636 64.673 260.672 64.6034 259.742 64.2427C258.816 63.8865 257.981 63.2677 257.239 62.3863L254.978 59.6447ZM264.885 53.6674L257.123 60.0699L258.257 61.4441C259.087 62.4509 260.045 62.9751 261.131 63.0167C262.221 63.0628 263.344 62.6089 264.501 61.655L265.079 61.178C266.204 60.2503 266.858 59.2649 267.042 58.2217C267.234 57.1794 266.934 56.1692 266.142 55.1912L264.885 53.6674Z" fill="white"/>
<path d="M282.374 75.979L274.931 80.5424C273.896 81.1705 272.852 81.3625 271.799 81.1185C270.749 80.8796 269.846 80.2333 269.089 79.1799L268.839 78.8057C268.105 77.6078 267.843 76.4549 268.053 75.3467C268.263 74.2386 268.931 73.3323 270.058 72.6278L277.516 68.0552L278.391 69.4836L270.979 74.0285C270.187 74.5141 269.704 75.1101 269.53 75.8165C269.362 76.5199 269.525 77.2751 270.02 78.082C270.52 78.8989 271.121 79.3893 271.821 79.5529C272.525 79.7216 273.272 79.5632 274.064 79.0777L281.484 74.5281L282.374 75.979Z" fill="white"/>
<path d="M283.681 98.8432C282.373 99.2394 281.21 99.1971 280.193 98.7163C279.184 98.2386 278.4 97.3582 277.842 96.0751C277.237 94.6843 277.25 93.3514 277.881 92.0765C278.515 90.807 279.668 89.8088 281.339 89.0818L282.471 88.5893C283.565 88.1132 284.612 87.8886 285.611 87.9156C286.613 87.948 287.49 88.2265 288.244 88.7512C289.004 89.2735 289.589 90.0064 289.999 90.9498C290.543 92.2006 290.629 93.3557 290.256 94.4153C289.889 95.4726 289.115 96.3318 287.935 96.9928L287.256 95.4321C288.135 94.8893 288.687 94.3 288.91 93.6642C289.136 93.0338 289.073 92.3143 288.721 91.5057C288.29 90.5137 287.584 89.8942 286.605 89.6471C285.628 89.4054 284.463 89.5789 283.11 90.1675L281.969 90.6636C280.692 91.2194 279.792 91.9283 279.269 92.7904C278.746 93.6524 278.694 94.5632 279.111 95.5228C279.487 96.3854 279.968 96.9613 280.556 97.2507C281.151 97.5431 281.966 97.5537 283.002 97.2825L283.681 98.8432Z" fill="white"/>
<path d="M296.621 115.274L295.517 111.298L284.488 114.358L284.037 112.735L295.067 109.675L293.966 105.706L295.309 105.334L297.963 114.902L296.621 115.274Z" fill="white"/>
<path d="M295.684 143.995L302.275 147.053L302.361 148.973L294.119 144.913L289.335 145.128L289.259 143.437L294.043 143.221L301.887 138.437L301.974 140.375L295.684 143.995Z" fill="white"/>
<path d="M294.286 170.098C293.034 169.973 291.961 169.652 291.068 169.137C290.18 168.623 289.529 167.955 289.115 167.133C288.701 166.312 288.546 165.386 288.649 164.357C288.75 163.35 289.086 162.483 289.655 161.754C290.23 161.026 290.996 160.492 291.952 160.15C292.913 159.816 293.997 159.703 295.203 159.812L296.125 159.904C297.353 160.028 298.417 160.35 299.316 160.872C300.214 161.393 300.874 162.068 301.293 162.896C301.717 163.73 301.879 164.651 301.778 165.657C301.675 166.68 301.336 167.556 300.761 168.284C300.191 169.019 299.413 169.549 298.429 169.876C297.451 170.203 296.339 170.304 295.093 170.179L294.286 170.098ZM295.279 168.505C296.794 168.657 297.986 168.47 298.854 167.942C299.728 167.416 300.22 166.605 300.33 165.511C300.437 164.447 300.115 163.567 299.363 162.871C298.617 162.181 297.525 161.756 296.088 161.594L295.149 161.499C293.681 161.352 292.495 161.543 291.591 162.073C290.692 162.609 290.188 163.418 290.08 164.5C289.97 165.588 290.281 166.47 291.01 167.146C291.746 167.823 292.853 168.244 294.331 168.41L295.279 168.505Z" fill="white"/>
<path d="M296.694 192.158L288.224 190.039C287.051 189.739 286.183 189.128 285.62 188.206C285.055 187.289 284.884 186.192 285.107 184.914L285.199 184.473C285.54 183.11 286.179 182.116 287.118 181.49C288.056 180.864 289.171 180.707 290.463 181.018L298.949 183.141L298.543 184.766L290.107 182.656C289.206 182.431 288.443 182.503 287.817 182.874C287.196 183.246 286.771 183.891 286.542 184.809C286.309 185.739 286.38 186.511 286.753 187.126C287.125 187.746 287.762 188.169 288.663 188.394L297.107 190.506L296.694 192.158Z" fill="white"/>
<path d="M276.483 209.789L287.926 215.613L286.282 218.843C285.775 219.838 285.107 220.606 284.278 221.147C283.448 221.688 282.522 221.959 281.5 221.96C280.474 221.966 279.433 221.703 278.378 221.173L277.647 220.801C276.567 220.251 275.728 219.56 275.129 218.728C274.528 217.901 274.207 216.989 274.167 215.992C274.124 215 274.359 213.989 274.871 212.956L276.483 209.789ZM285.916 216.49L276.949 211.926L276.141 213.514C275.549 214.677 275.45 215.765 275.845 216.777C276.238 217.795 277.102 218.643 278.438 219.323L279.106 219.663C280.406 220.325 281.57 220.531 282.6 220.284C283.632 220.044 284.439 219.366 285.02 218.25L285.916 216.49Z" fill="white"/>
<path d="M268.648 233.496L270.377 231.025L266.121 228.048L267.096 226.653L277.617 234.013L275.181 237.496C274.352 238.681 273.445 239.403 272.461 239.661C271.473 239.925 270.464 239.696 269.433 238.974C268.777 238.516 268.331 237.938 268.094 237.242C267.854 236.55 267.834 235.804 268.034 235.004L261.84 234.352L261.753 234.291L262.795 232.802L268.648 233.496ZM271.511 231.819L270.02 233.95C269.538 234.639 269.334 235.311 269.407 235.965C269.477 236.624 269.811 237.162 270.408 237.58C271.059 238.035 271.694 238.188 272.313 238.041C272.93 237.898 273.497 237.462 274.014 236.733L275.5 234.609L271.511 231.819Z" fill="white"/>
<path d="M254.867 251.41L258.639 247.319L255.293 244.235L250.912 248.987L249.894 248.049L255.423 242.051L264.863 250.754L259.394 256.687L258.37 255.742L262.691 251.054L259.657 248.257L255.885 252.349L254.867 251.41Z" fill="white"/>
<path d="M239.557 261.812L243.7 258.38L242.492 255.029L243.837 253.915L248.251 266.931L247.11 267.876L235.137 261.121L236.475 260.013L239.557 261.812ZM244.194 259.78L240.833 262.564L246.348 265.794L244.194 259.78Z" fill="white"/>
<path d="M232.315 278.684L223.356 271.82L225.097 282.971L223.209 284.092L216.652 273.053L218.108 272.188L220.661 276.487L223.281 281.208L221.596 270.117L222.71 269.455L231.623 276.223L228.736 271.691L226.183 267.392L227.639 266.528L234.195 277.567L232.315 278.684Z" fill="white"/>
<path d="M187.886 290.718C187.527 289.512 187.417 288.398 187.555 287.376C187.695 286.359 188.066 285.503 188.669 284.809C189.273 284.115 190.07 283.62 191.062 283.325C192.031 283.037 192.961 283.019 193.851 283.269C194.743 283.526 195.528 284.032 196.206 284.787C196.881 285.549 197.396 286.509 197.752 287.667L198.016 288.555C198.367 289.738 198.472 290.845 198.33 291.874C198.189 292.904 197.814 293.769 197.207 294.471C196.596 295.18 195.805 295.679 194.836 295.967C193.85 296.26 192.911 296.278 192.019 296.022C191.123 295.773 190.338 295.255 189.662 294.468C188.989 293.687 188.473 292.696 188.117 291.496L187.886 290.718ZM189.736 291.033C190.17 292.492 190.795 293.524 191.613 294.128C192.431 294.737 193.368 294.885 194.422 294.572C195.447 294.267 196.14 293.635 196.499 292.676C196.854 291.724 196.834 290.553 196.439 289.161L196.17 288.257C195.75 286.842 195.123 285.817 194.29 285.181C193.454 284.553 192.514 284.394 191.471 284.703C190.423 285.015 189.725 285.636 189.376 286.568C189.029 287.505 189.058 288.689 189.465 290.12L189.736 291.033Z" fill="white"/>
<path d="M169.311 293.943L174.639 293.142L173.797 287.535L175.471 287.283L177.379 299.98L169.513 301.162L169.306 299.784L175.498 298.854L174.845 294.511L169.517 295.312L169.311 293.943Z" fill="white"/>
</svg>
